  0
SECTION
  2
HEADER
  9
$ACADVER
  1
AC1015
  9
$ACADMAINTVER
 70
     6
  9
$DWGCODEPAGE
  3
ANSI_1252
  9
$INSBASE
 10
0.0
 20
0.0
 30
0.0
  9
$EXTMIN
 10
0.0
 20
0.0
 30
0.0
  9
$EXTMAX
 10
500.0
 20
300.0
 30
0.0
  9
$LIMMIN
 10
0.0
 20
0.0
  9
$LIMMAX
 10
420.0
 20
297.0
  9
$ORTHOMODE
 70
     0
  9
$REGENMODE
 70
     1
  9
$FILLMODE
 70
     1
  9
$QTEXTMODE
 70
     0
  9
$MIRRTEXT
 70
     1
  9
$LTSCALE
 40
1.0
  9
$ATTMODE
 70
     1
  9
$TEXTSIZE
 40
3.5
  9
$TRACEWID
 40
1.0
  9
$TEXTSTYLE
  7
Standard
  9
$CLAYER
  8
0
  9
$CELTYPE
  6
ByLayer
  9
$CECOLOR
 62
   256
  9
$CELTSCALE
 40
1.0
  9
$DISPSILH
 70
     0
  9
$DIMSCALE
 40
1.0
  9
$DIMASZ
 40
3.302
  9
$DIMEXO
 40
1.0
  9
$DIMDLI
 40
3.75
  9
$DIMRND
 40
0.0
  9
$DIMDLE
 40
0.0
  9
$DIMEXE
 40
1.0
  9
$DIMTP
 40
0.0
  9
$DIMTM
 40
0.0
  9
$DIMTXT
 40
3.5
  9
$DIMCEN
 40
2.5
  9
$DIMTSZ
 40
0.0
  9
$DIMTOL
 70
     0
  9
$DIMLIM
 70
     0
  9
$DIMTIH
 70
     1
  9
$DIMTOH
 70
     1
  9
$DIMSE1
 70
     0
  9
$DIMSE2
 70
     0
  9
$DIMTAD
 70
     1
  9
$DIMZIN
 70
     0
  9
$DIMBLK
  1

  9
$DIMASO
 70
     1
  9
$DIMSHO
 70
     1
  9
$DIMPOST
  1

  9
$DIMAPOST
  1

  9
$DIMALT
 70
     0
  9
$DIMALTD
 70
     3
  9
$DIMALTF
 40
0.0393700787
  9
$DIMLFAC
 40
1.0
  9
$DIMTOFL
 70
     1
  9
$DIMTVP
 40
0.0
  9
$DIMTIX
 70
     0
  9
$DIMSOXD
 70
     0
  9
$DIMSAH
 70
     0
  9
$DIMBLK1
  1

  9
$DIMBLK2
  1

  9
$DIMSTYLE
  2
ISO-25
  9
$DIMCLRD
 70
     0
  9
$DIMCLRE
 70
     0
  9
$DIMCLRT
 70
     0
  9
$DIMTFAC
 40
1.0
  9
$DIMGAP
 40
1.524
  9
$DIMJUST
 70
     0
  9
$DIMSD1
 70
     0
  9
$DIMSD2
 70
     0
  9
$DIMTOLJ
 70
     0
  9
$DIMTZIN
 70
     0
  9
$DIMALTZ
 70
     0
  9
$DIMALTTZ
 70
     0
  9
$DIMUPT
 70
     0
  9
$DIMDEC
 70
     2
  9
$DIMTDEC
 70
     2
  9
$DIMALTU
 70
     2
  9
$DIMALTTD
 70
     3
  9
$DIMTXSTY
  7
Standard
  9
$DIMAUNIT
 70
     0
  9
$DIMADEC
 70
     2
  9
$DIMALTRND
 40
0.0
  9
$DIMAZIN
 70
     0
  9
$DIMDSEP
 70
    44
  9
$DIMATFIT
 70
     3
  9
$DIMFRAC
 70
     0
  9
$DIMLDRBLK
  1

  9
$DIMLUNIT
 70
     2
  9
$DIMLWD
 70
    -2
  9
$DIMLWE
 70
    -2
  9
$DIMTMOVE
 70
     0
  9
$LUNITS
 70
     2
  9
$LUPREC
 70
     2
  9
$SKETCHINC
 40
1.0
  9
$FILLETRAD
 40
10.0
  9
$AUNITS
 70
     0
  9
$AUPREC
 70
     2
  9
$MENU
  1
.
  9
$ELEVATION
 40
0.0
  9
$PELEVATION
 40
0.0
  9
$THICKNESS
 40
0.0
  9
$LIMCHECK
 70
     0
  9
$CHAMFERA
 40
0.0
  9
$CHAMFERB
 40
0.0
  9
$CHAMFERC
 40
0.0
  9
$CHAMFERD
 40
0.0
  9
$SKPOLY
 70
     0
  9
$TDCREATE
 40
2457085.71595691
  9
$TDUCREATE
 40
2457085.632623577
  9
$TDUPDATE
 40
2457085.715983877
  9
$TDUUPDATE
 40
2457085.632650544
  9
$TDINDWG
 40
0.0000000116
  9
$TDUSRTIMER
 40
0.0000000116
  9
$USRTIMER
 70
     1
  9
$ANGBASE
 50
0.0
  9
$ANGDIR
 70
     0
  9
$PDMODE
 70
     0
  9
$PDSIZE
 40
-1.0
  9
$PLINEWID
 40
0.0
  9
$SPLFRAME
 70
     0
  9
$SPLINETYPE
 70
     6
  9
$SPLINESEGS
 70
     8
  9
$HANDSEED
  5
288
  9
$SURFTAB1
 70
     6
  9
$SURFTAB2
 70
     6
  9
$SURFTYPE
 70
     6
  9
$SURFU
 70
     6
  9
$SURFV
 70
     6
  9
$UCSBASE
  2

  9
$UCSNAME
  2

  9
$UCSORG
 10
0.0
 20
0.0
 30
0.0
  9
$UCSXDIR
 10
1.0
 20
0.0
 30
0.0
  9
$UCSYDIR
 10
0.0
 20
1.0
 30
0.0
  9
$UCSORTHOREF
  2

  9
$UCSORTHOVIEW
 70
     0
  9
$UCSORGTOP
 10
0.0
 20
0.0
 30
0.0
  9
$UCSORGBOTTOM
 10
0.0
 20
0.0
 30
0.0
  9
$UCSORGLEFT
 10
0.0
 20
0.0
 30
0.0
  9
$UCSORGRIGHT
 10
0.0
 20
0.0
 30
0.0
  9
$UCSORGFRONT
 10
0.0
 20
0.0
 30
0.0
  9
$UCSORGBACK
 10
0.0
 20
0.0
 30
0.0
  9
$PUCSBASE
  2

  9
$PUCSNAME
  2

  9
$PUCSORG
 10
0.0
 20
0.0
 30
0.0
  9
$PUCSXDIR
 10
1.0
 20
0.0
 30
0.0
  9
$PUCSYDIR
 10
0.0
 20
1.0
 30
0.0
  9
$PUCSORTHOREF
  2

  9
$PUCSORTHOVIEW
 70
     0
  9
$PUCSORGTOP
 10
0.0
 20
0.0
 30
0.0
  9
$PUCSORGBOTTOM
 10
0.0
 20
0.0
 30
0.0
  9
$PUCSORGLEFT
 10
0.0
 20
0.0
 30
0.0
  9
$PUCSORGRIGHT
 10
0.0
 20
0.0
 30
0.0
  9
$PUCSORGFRONT
 10
0.0
 20
0.0
 30
0.0
  9
$PUCSORGBACK
 10
0.0
 20
0.0
 30
0.0
  9
$USERI1
 70
     0
  9
$USERI2
 70
     0
  9
$USERI3
 70
     0
  9
$USERI4
 70
     0
  9
$USERI5
 70
     0
  9
$USERR1
 40
0.0
  9
$USERR2
 40
0.0
  9
$USERR3
 40
0.0
  9
$USERR4
 40
0.0
  9
$USERR5
 40
0.0
  9
$WORLDVIEW
 70
     1
  9
$SHADEDGE
 70
     3
  9
$SHADEDIF
 70
    70
  9
$TILEMODE
 70
     1
  9
$MAXACTVP
 70
    64
  9
$PINSBASE
 10
0.0
 20
0.0
 30
0.0
  9
$PLIMCHECK
 70
     0
  9
$PEXTMIN
 10
1.0000000000E+20
 20
1.0000000000E+20
 30
1.0000000000E+20
  9
$PEXTMAX
 10
-1.0000000000E+20
 20
-1.0000000000E+20
 30
-1.0000000000E+20
  9
$PLIMMIN
 10
0.0
 20
0.0
  9
$PLIMMAX
 10
420.0
 20
297.0
  9
$UNITMODE
 70
     0
  9
$VISRETAIN
 70
     1
  9
$PLINEGEN
 70
     0
  9
$PSLTSCALE
 70
     1
  9
$TREEDEPTH
 70
  3020
  9
$CMLSTYLE
  2
Standard
  9
$CMLJUST
 70
     0
  9
$CMLSCALE
 40
20.0
  9
$PROXYGRAPHICS
 70
     1
  9
$MEASUREMENT
 70
     1
  9
$CELWEIGHT
370
    -1
  9
$ENDCAPS
280
     0
  9
$JOINSTYLE
280
     0
  9
$LWDISPLAY
290
     1
  9
$INSUNITS
 70
     4
  9
$HYPERLINKBASE
  1

  9
$STYLESHEET
  1

  9
$XEDIT
290
     1
  9
$CEPSNTYPE
380
     0
  9
$PSTYLEMODE
290
     1
  9
$FINGERPRINTGUID
  2
{C2AA4624-03A0-4960-A87F-48911C9B8983}
  9
$VERSIONGUID
  2
{FAEB1C32-E019-11D5-929B-00C0DF256EC4}
  9
$EXTNAMES
290
     1
  9
$PSVPSCALE
 40
0.0
  9
$OLESTARTUP
290
     0
  0
ENDSEC
  0
SECTION
  2
CLASSES
  0
CLASS
  1
ACDBDICTIONARYWDFLT
  2
AcDbDictionaryWithDefault
  3
ObjectDBX Classes
 90
        0
280
     0
281
     0
  0
CLASS
  1
VISUALSTYLE
  2
AcDbVisualStyle
  3
ObjectDBX Classes
 90
     4095
280
     0
281
     0
  0
CLASS
  1
MATERIAL
  2
AcDbMaterial
  3
ObjectDBX Classes
 90
     1153
280
     0
281
     0
  0
CLASS
  1
SCALE
  2
AcDbScale
  3
ObjectDBX Classes
 90
     1153
280
     0
281
     0
  0
CLASS
  1
SUN
  2
AcDbSun
  3
SCENEOE
 90
     1153
280
     0
281
     0
  0
CLASS
  1
ACDBPLACEHOLDER
  2
AcDbPlaceHolder
  3
ObjectDBX Classes
 90
        0
280
     0
281
     0
  0
CLASS
  1
LAYOUT
  2
AcDbLayout
  3
ObjectDBX Classes
 90
        0
280
     0
281
     0
  0
ENDSEC
  0
SECTION
  2
TABLES
  0
TABLE
  2
VPORT
  5
8
330
0
100
AcDbSymbolTable
 70
     1
  0
VPORT
  5
29
330
8
100
AcDbSymbolTableRecord
100
AcDbViewportTableRecord
  2
*Active
 70
     0
 10
0.0
 20
0.0
 11
1.0
 21
1.0
 12
250.0
 22
150.0
 13
0.0
 23
0.0
 14
10.0
 24
10.0
 15
10.0
 25
10.0
 16
0.0
 26
0.0
 36
1.0
 17
0.0
 27
0.0
 37
0.0
 40
306.0
 41
1.6666666667
 42
50.0
 43
0.0
 44
0.0
 50
0.0
 51
0.0
 71
     0
 72
   100
 73
     1
 74
     3
 75
     0
 76
     0
 77
     0
 78
     0
281
     0
 65
     1
110
0.0
120
0.0
130
0.0
111
1.0
121
0.0
131
0.0
112
0.0
122
1.0
132
0.0
 79
     0
146
0.0
  0
ENDTAB
  0
TABLE
  2
LTYPE
  5
5
330
0
100
AcDbSymbolTable
 70
     6
  0
LTYPE
  5
14
330
5
100
AcDbSymbolTableRecord
100
AcDbLinetypeTableRecord
  2
ByBlock
 70
     0
  3

 72
    65
 73
     0
 40
0.0
  0
LTYPE
  5
15
330
5
100
AcDbSymbolTableRecord
100
AcDbLinetypeTableRecord
  2
ByLayer
 70
     0
  3

 72
    65
 73
     0
 40
0.0
  0
LTYPE
  5
16
330
5
100
AcDbSymbolTableRecord
100
AcDbLinetypeTableRecord
  2
Continuous
 70
     0
  3
Solid line
 72
    65
 73
     0
 40
0.0
  0
LTYPE
  5
6A
330
5
100
AcDbSymbolTableRecord
100
AcDbLinetypeTableRecord
  2
HIDDEN
 70
     0
  3
Hidden __ __ __ __ __ __ __ __ __ __ __ __ __ __
 72
    65
 73
     2
 40
1.905
 49
1.27
 74
     0
 49
-0.635
 74
     0
  0
LTYPE
  5
6B
330
5
100
AcDbSymbolTableRecord
100
AcDbLinetypeTableRecord
  2
PHANTOM
 70
     0
  3
Phantom ______  __  __  ______  __  __  ______
 72
    65
 73
     6
 40
12.7
 49
6.35
 74
     0
 49
-1.27
 74
     0
 49
1.27
 74
     0
 49
-1.27
 74
     0
 49
1.27
 74
     0
 49
-1.27
 74
     0
  0
LTYPE
  5
6C
330
5
100
AcDbSymbolTableRecord
100
AcDbLinetypeTableRecord
  2
CENTER
 70
     0
  3
Center ____ _ ____ _ ____ _ ____ _ ____ _ ____
 72
    65
 73
     4
 40
10.16
 49
6.35
 74
     0
 49
-1.27
 74
     0
 49
1.27
 74
     0
 49
-1.27
 74
     0
  0
LTYPE
  5
6D
330
5
100
AcDbSymbolTableRecord
100
AcDbLinetypeTableRecord
  2
CENTERX2
 70
     0
  3
Center (2x) ________  __  ________  __  _____
 72
    65
 73
     4
 40
20.32
 49
12.7
 74
     0
 49
-2.54
 74
     0
 49
2.54
 74
     0
 49
-2.54
 74
     0
  0
LTYPE
  5
6E
330
5
100
AcDbSymbolTableRecord
100
AcDbLinetypeTableRecord
  2
DOT2
 70
     0
  3
Dot (.5x) ........................................
 72
    65
 73
     2
 40
0.635
 49
0.0
 74
     0
 49
-0.635
 74
     0
  0
ENDTAB
  0
TABLE
  2
LAYER
  5
2
330
0
100
AcDbSymbolTable
 70
     1
  0
LAYER
  5
10
330
2
100
AcDbSymbolTableRecord
100
AcDbLayerTableRecord
  2
0
 70
     0
 62
     7
  6
Continuous
370
    -3
390
F
  0
ENDTAB
  0
TABLE
  2
STYLE
  5
3
330
0
100
AcDbSymbolTable
 70
     1
  0
STYLE
  5
11
330
3
100
AcDbSymbolTableRecord
100
AcDbTextStyleTableRecord
  2
Standard
 70
     0
 40
0.0
 41
1.0
 50
0.0
 71
     0
 42
3.5
  3
txt
  4

  0
ENDTAB
  0
TABLE
  2
VIEW
  5
6
330
0
100
AcDbSymbolTable
 70
     0
  0
ENDTAB
  0
TABLE
  2
UCS
  5
7
330
0
100
AcDbSymbolTable
 70
     0
  0
ENDTAB
  0
TABLE
  2
APPID
  5
9
330
0
100
AcDbSymbolTable
 70
     1
  0
APPID
  5
12
330
9
100
AcDbSymbolTableRecord
100
AcDbRegAppTableRecord
  2
ACAD
 70
     0
  0
ENDTAB
  0
TABLE
  2
DIMSTYLE
  5
A
330
0
100
AcDbSymbolTable
 70
     1
100
AcDbDimStyleTable
  0
DIMSTYLE
105
27
330
A
100
AcDbSymbolTableRecord
100
AcDbDimStyleTableRecord
  2
ISO-25
 70
     0
 41
2.5
 42
0.625
 43
3.75
 44
1.25
 73
     0
 74
     0
 77
     1
 78
     8
140
2.5
141
2.5
143
0.0393700787
147
0.625
171
     3
172
     1
178
     0
271
     2
272
     2
274
     3
278
    44
283
     0
284
     8
340
11
  0
ENDTAB
  0
TABLE
  2
BLOCK_RECORD
  5
1
330
0
100
AcDbSymbolTable
 70
     1
  0
BLOCK_RECORD
  5
1F
330
1
100
AcDbSymbolTableRecord
100
AcDbBlockTableRecord
  2
*Model_Space
340
22
  0
BLOCK_RECORD
  5
1B
330
1
100
AcDbSymbolTableRecord
100
AcDbBlockTableRecord
  2
*Paper_Space
340
1E
  0
BLOCK_RECORD
  5
23
330
1
100
AcDbSymbolTableRecord
100
AcDbBlockTableRecord
  2
*Paper_Space0
340
26
  0
ENDTAB
  0
ENDSEC
  0
SECTION
  2
BLOCKS
  0
BLOCK
  5
20
330
1F
100
AcDbEntity
  8
0
100
AcDbBlockBegin
  2
*Model_Space
 70
     0
 10
0.0
 20
0.0
 30
0.0
  3
*Model_Space
  1
*Model_Space
  0
ENDBLK
  5
21
330
1F
100
AcDbEntity
  8
0
100
AcDbBlockEnd
  0
BLOCK
  5
1C
330
1B
100
AcDbEntity
 67
     1
  8
0
100
AcDbBlockBegin
  2
*Paper_Space
 70
     0
 10
0.0
 20
0.0
 30
0.0
  3
*Paper_Space
  1
*Paper_Space
  0
ENDBLK
  5
1D
330
1B
100
AcDbEntity
 67
     1
  8
0
100
AcDbBlockEnd
  0
BLOCK
  5
24
330
23
100
AcDbEntity
  8
0
100
AcDbBlockBegin
  2
*Paper_Space0
 70
     0
 10
0.0
 20
0.0
 30
0.0
  3
*Paper_Space0
  1
*Paper_Space0
  0
ENDBLK
  5
25
330
23
100
AcDbEntity
  8
0
100
AcDbBlockEnd
  0
ENDSEC
  0
SECTION
  2
ENTITIES
  0
ARC
  5
6F
330
1F
100
AcDbEntity
  8
0
  6
Continuous
 62
     7
100
AcDbCircle
 10
16.6657022135
 20
186.1097720657
 30
0.0
 40
4.000000000000398
100
AcDbArc
 50
0.0
 51
90.0
  0
ARC
  5
70
330
1F
100
AcDbEntity
  8
0
  6
Continuous
 62
     7
100
AcDbCircle
 10
12.4358653729
 20
190.8997744071
 30
0.0
 40
17.93255360611185
100
AcDbArc
 50
242.6817362547
 51
293.7763931313
  0
ARC
  5
71
330
1F
100
AcDbEntity
  8
0
  6
Continuous
 62
     7
100
AcDbCircle
 10
11.8370846494
 20
161.7999655476
 30
0.0
 40
13.40833333333358
100
AcDbArc
 50
81.4216933424
 51
98.5783066576
  0
ARC
  5
72
330
1F
100
AcDbEntity
  8
0
  6
Continuous
 62
     7
100
AcDbCircle
 10
8.2260285322
 20
168.6999655476
 30
0.0
 40
13.40833333333361
100
AcDbArc
 50
81.4216933424
 51
98.5783066576
  0
ARC
  5
73
330
1F
100
AcDbEntity
  8
0
  6
Continuous
 62
     7
100
AcDbCircle
 10
16.2260285322
 20
168.6999655476
 30
0.0
 40
13.40833333333361
100
AcDbArc
 50
81.4216933424
 51
98.5783066576
  0
ARC
  5
74
330
1F
100
AcDbEntity
  8
0
  6
Continuous
 62
     7
100
AcDbCircle
 10
90.638474668
 20
149.2862377368
 30
0.0
 40
13.40833333333358
100
AcDbArc
 50
81.4216933424
 51
98.5783066576
  0
ARC
  5
75
330
1F
100
AcDbEntity
  8
0
  6
Continuous
 62
     7
100
AcDbCircle
 10
87.0274185507
 20
156.1862377368
 30
0.0
 40
13.40833333333361
100
AcDbArc
 50
81.4216933424
 51
98.5783066576
  0
ARC
  5
76
330
1F
100
AcDbEntity
  8
0
  6
Continuous
 62
     7
100
AcDbCircle
 10
95.0274185507
 20
156.1347645521
 30
0.0
 40
13.40833333333358
100
AcDbArc
 50
81.4216933424
 51
98.5783066576
  0
ARC
  5
77
330
1F
100
AcDbEntity
  8
0
  6
Continuous
 62
     7
100
AcDbCircle
 10
153.5542757795
 20
137.9395502878
 30
0.0
 40
5.000000000000028
100
AcDbArc
 50
0.0
 51
90.0
  0
ARC
  5
78
330
1F
100
AcDbEntity
  8
0
  6
Continuous
 62
     7
100
AcDbCircle
 10
127.3627682414
 20
198.4796974725
 30
0.0
 40
13.40833333333359
100
AcDbArc
 50
351.4216933424
 51
8.5783066576
  0
ARC
  5
79
330
1F
100
AcDbEntity
  8
0
  6
Continuous
 62
     7
100
AcDbCircle
 10
39.684496447
 20
197.3641237673
 30
0.0
 40
13.40833333333359
100
AcDbArc
 50
351.4216933424
 51
8.5783066576
  0
ARC
  5
7A
330
1F
100
AcDbEntity
  8
0
  6
Continuous
 62
     7
100
AcDbCircle
 10
-723.9278501518
 20
-629.140014121
 30
0.0
 40
1080.07499999978
100
AcDbArc
 50
44.0450924454
 51
45.9549075546
  0
CIRCLE
  5
7B
330
1F
100
AcDbEntity
  8
0
  6
Continuous
 62
     7
100
AcDbCircle
 10
43.937081208
 20
138.7249172388
 30
0.0
 40
38.49999999999998
  0
CIRCLE
  5
7C
330
1F
100
AcDbEntity
  8
0
  6
Continuous
 62
     7
100
AcDbCircle
 10
18.937081208
 20
138.7249172388
 30
0.0
 40
5.500000000000079
  0
CIRCLE
  5
7D
330
1F
100
AcDbEntity
  8
0
  6
Continuous
 62
     7
100
AcDbCircle
 10
43.937081208
 20
163.7249172388
 30
0.0
 40
5.500000000000044
  0
CIRCLE
  5
7E
330
1F
100
AcDbEntity
  8
0
  6
Continuous
 62
     7
100
AcDbCircle
 10
43.937081208
 20
113.7249172388
 30
0.0
 40
5.500000000000041
  0
CIRCLE
  5
7F
330
1F
100
AcDbEntity
  8
0
  6
Continuous
 62
     7
100
AcDbCircle
 10
68.937081208
 20
138.7249172388
 30
0.0
 40
5.500000000000086
  0
ARC
  5
80
330
1F
100
AcDbEntity
  8
0
  6
Continuous
 62
     7
100
AcDbCircle
 10
-718.2709959023
 20
-623.4831598715
 30
0.0
 40
1080.07499999978
100
AcDbArc
 50
44.0450924454
 51
45.9549075546
  0
ARC
  5
81
330
1F
100
AcDbEntity
  8
0
  6
Continuous
 62
     7
100
AcDbCircle
 10
811.8020125679
 20
906.5898485988
 30
0.0
 40
1080.074999999888
100
AcDbArc
 50
224.0450924454
 51
225.9549075546
  0
ARC
  5
82
330
1F
100
AcDbEntity
  8
0
  6
Continuous
 62
     7
100
AcDbCircle
 10
806.1451583184
 20
900.9329943493
 30
0.0
 40
1080.074999999888
100
AcDbArc
 50
224.0450924454
 51
225.9549075546
  0
CIRCLE
  5
83
330
1F
100
AcDbEntity
  8
0
  6
Continuous
 62
     7
100
AcDbCircle
 10
70.8776238641
 20
177.4040708743
 30
0.0
 40
1.500000000000028
  0
ARC
  5
84
330
1F
100
AcDbEntity
  8
0
  6
Continuous
 62
     7
100
AcDbCircle
 10
70.8776238641
 20
177.4040708743
 30
0.0
 40
4.000000000000398
100
AcDbArc
 50
191.5369590328
 51
270.0000000001
  0
ARC
  5
85
330
1F
100
AcDbEntity
  8
0
  6
Continuous
 62
     7
100
AcDbCircle
 10
70.8776238641
 20
177.4040708743
 30
0.0
 40
4.000000000001431
100
AcDbArc
 50
41.5189939772
 51
126.8698976459
  0
ARC
  5
86
330
1F
100
AcDbEntity
  8
0
  6
Continuous
 62
     7
100
AcDbCircle
 10
148.8627682414
 20
164.5445710702
 30
0.0
 40
13.40833333333355
100
AcDbArc
 50
351.4216933424
 51
8.5783066576
  0
ARC
  5
87
330
1F
100
AcDbEntity
  8
0
  6
Continuous
 62
     7
100
AcDbCircle
 10
110.2255065558
 20
141.1812169545
 30
0.0
 40
13.40833333333351
100
AcDbArc
 50
81.4216933424
 51
98.5783066576
  0
ARC
  5
88
330
1F
100
AcDbEntity
  8
0
  6
Continuous
 62
     7
100
AcDbCircle
 10
110.2255065558
 20
147.6978836211
 30
0.0
 40
13.40833333333365
100
AcDbArc
 50
261.4216933424
 51
278.5783066577
  0
CIRCLE
  5
89
330
1F
100
AcDbEntity
  8
0
  6
Continuous
 62
     7
100
AcDbCircle
 10
101.2255065558
 20
144.5350565215
 30
0.0
 40
1.499999999999951
  0
ARC
  5
8A
330
1F
100
AcDbEntity
  8
0
  6
Continuous
 62
     7
100
AcDbCircle
 10
101.2255065558
 20
144.5350565215
 30
0.0
 40
10.00000000000001
100
AcDbArc
 50
95.1636070908
 51
99.8363929092
  0
ARC
  5
8B
330
1F
100
AcDbEntity
  8
0
  6
Continuous
 62
     7
100
AcDbCircle
 10
101.2255065558
 20
144.5350565215
 30
0.0
 40
10.0
100
AcDbArc
 50
110.1636070908
 51
114.8363929092
  0
ARC
  5
8C
330
1F
100
AcDbEntity
  8
0
  6
Continuous
 62
     7
100
AcDbCircle
 10
101.2255065558
 20
144.5350565215
 30
0.0
 40
9.999999999999993
100
AcDbArc
 50
125.1636070908
 51
129.8363929092
  0
CIRCLE
  5
8D
330
1F
100
AcDbEntity
  8
0
  6
Continuous
 62
     7
100
AcDbCircle
 10
87.1374414791
 20
285.6197574339
 30
0.0
 40
1.500000000000033
  0
ARC
  5
8E
330
1F
100
AcDbEntity
  8
0
  6
Continuous
 62
     7
100
AcDbCircle
 10
13.2182118304
 20
287.6254586254
 30
0.0
 40
2.499999999999947
100
AcDbArc
 50
90.0
 51
180.0
  0
CIRCLE
  5
8F
330
1F
100
AcDbEntity
  8
0
  6
Continuous
 62
     7
100
AcDbCircle
 10
82.0844229508
 20
219.9313748326
 30
0.0
 40
2.000000000000009
  0
ARC
  5
90
330
1F
100
AcDbEntity
  8
0
  6
Continuous
 62
     7
100
AcDbCircle
 10
946.9639531083
 20
219.8067684325
 30
0.0
 40
938.6988136780424
100
AcDbArc
 50
175.8569106298
 51
179.8953143598
  0
CIRCLE
  5
91
330
1F
100
AcDbEntity
  8
0
  6
Continuous
 62
     7
100
AcDbCircle
 10
19.2581211324
 20
269.760976161
 30
0.0
 40
3.499999999999967
  0
CIRCLE
  5
92
330
1F
100
AcDbEntity
  8
0
  6
Continuous
 62
     7
100
AcDbCircle
 10
45.4585018809
 20
269.760976161
 30
0.0
 40
3.499999999999967
  0
CIRCLE
  5
93
330
1F
100
AcDbEntity
  8
0
  6
Continuous
 62
     7
100
AcDbCircle
 10
58.8001463481
 20
254.9313748326
 30
0.0
 40
3.499999999999974
  0
CIRCLE
  5
94
330
1F
100
AcDbEntity
  8
0
  6
Continuous
 62
     7
100
AcDbCircle
 10
82.0844229508
 20
254.9313748326
 30
0.0
 40
3.499999999999982
  0
ARC
  5
95
330
1F
100
AcDbEntity
  8
0
  6
Continuous
 62
     7
100
AcDbCircle
 10
-15.6087496955
 20
247.073462252
 30
0.0
 40
106.1476011535502
100
AcDbArc
 50
333.1370129461
 51
14.8207259964
  0
CIRCLE
  5
96
330
1F
100
AcDbEntity
  8
0
  6
Continuous
 62
     7
100
AcDbCircle
 10
12.255579546
 20
251.5661634162
 30
0.0
 40
1.999999999999997
  0
CIRCLE
  5
97
330
1F
100
AcDbEntity
  8
0
  6
Continuous
 62
     7
100
AcDbCircle
 10
29.937081208
 20
198.985398664
 30
0.0
 40
1.99999999999988
  0
ARC
  5
98
330
1F
100
AcDbEntity
  8
0
  6
Continuous
 62
     7
100
AcDbCircle
 10
101.2255065558
 20
144.5350565215
 30
0.0
 40
10.00000000000001
100
AcDbArc
 50
140.1636070908
 51
144.8363929092
  0
ARC
  5
99
330
1F
100
AcDbEntity
  8
0
  6
Continuous
 62
     7
100
AcDbCircle
 10
101.2255065558
 20
144.5350565215
 30
0.0
 40
9.999999999999991
100
AcDbArc
 50
155.1636070908
 51
159.8363929091
  0
ARC
  5
9A
330
1F
100
AcDbEntity
  8
0
  6
Continuous
 62
     7
100
AcDbCircle
 10
101.2255065558
 20
144.5350565215
 30
0.0
 40
10.0
100
AcDbArc
 50
170.1636070908
 51
174.8363929092
  0
ARC
  5
9B
330
1F
100
AcDbEntity
  8
0
  6
Continuous
 62
     7
100
AcDbCircle
 10
101.2255065558
 20
144.5350565215
 30
0.0
 40
9.999999999999982
100
AcDbArc
 50
245.1636070908
 51
247.5
  0
ARC
  5
9C
330
1F
100
AcDbEntity
  8
0
  6
Continuous
 62
     7
100
AcDbCircle
 10
101.2255065558
 20
144.5350565215
 30
0.0
 40
10.0
100
AcDbArc
 50
230.1636070908
 51
234.8363929092
  0
ARC
  5
9D
330
1F
100
AcDbEntity
  8
0
  6
Continuous
 62
     7
100
AcDbCircle
 10
101.2255065558
 20
144.5350565215
 30
0.0
 40
9.999999999999979
100
AcDbArc
 50
215.1636070908
 51
219.8363929092
  0
ARC
  5
9E
330
1F
100
AcDbEntity
  8
0
  6
Continuous
 62
     7
100
AcDbCircle
 10
101.2255065558
 20
144.5350565215
 30
0.0
 40
9.999999999999998
100
AcDbArc
 50
200.1636070908
 51
204.8363929091
  0
ARC
  5
9F
330
1F
100
AcDbEntity
  8
0
  6
Continuous
 62
     7
100
AcDbCircle
 10
101.2255065558
 20
144.5350565215
 30
0.0
 40
9.999999999999996
100
AcDbArc
 50
185.1636070908
 51
189.8363929091
  0
ARC
  5
A0
330
1F
100
AcDbEntity
  8
0
  6
Continuous
 62
     7
100
AcDbCircle
 10
11.9260285322
 20
187.9597720657
 30
0.0
 40
5.204517903326651
100
AcDbArc
 50
24.3998863559
 51
155.6001136441
  0
ARC
  5
A1
330
1F
100
AcDbEntity
  8
0
  6
Continuous
 62
     7
100
AcDbCircle
 10
91.2372553914
 20
178.3345734115
 30
0.0
 40
17.93255360611186
100
AcDbArc
 50
242.6817362547
 51
293.7763931313
  0
ARC
  5
A2
330
1F
100
AcDbEntity
  8
0
  6
Continuous
 62
     7
100
AcDbCircle
 10
95.4670922321
 20
173.5445710702
 30
0.0
 40
4.0
100
AcDbArc
 50
0.0
 51
90.0
  0
ARC
  5
A3
330
1F
100
AcDbEntity
  8
0
  6
Continuous
 62
     7
100
AcDbCircle
 10
90.7274185507
 20
175.3945710702
 30
0.0
 40
5.204517903326503
100
AcDbArc
 50
24.3998863559
 51
155.6001136441
  0
ARC
  5
A4
330
1F
100
AcDbEntity
  8
0
  6
Continuous
 62
     7
100
AcDbCircle
 10
152.1211015747
 20
173.5445710702
 30
0.0
 40
8.000000000000028
100
AcDbArc
 50
0.0
 51
180.0
  0
ARC
  5
A5
330
1F
100
AcDbEntity
  8
0
  6
Continuous
 62
     7
100
AcDbCircle
 10
46.477527931
 20
226.7877433065
 30
0.0
 40
38.57196243249935
100
AcDbArc
 50
187.846562856
 51
225.8539949332
  0
ARC
  5
A6
330
1F
100
AcDbEntity
  8
0
  6
Continuous
 62
     7
100
AcDbCircle
 10
57.9335422973
 20
235.7676095339
 30
0.0
 40
53.03106873665079
100
AcDbArc
 50
223.7293160363
 51
239.4249860237
  0
ARC
  5
A7
330
1F
100
AcDbEntity
  8
0
  6
Continuous
 62
     7
100
AcDbCircle
 10
64.0170736147
 20
206.7416326727
 30
0.0
 40
16.88995041681944
100
AcDbArc
 50
280.0291344532
 51
333.1370129461
  0
ARC
  5
A8
330
1F
100
AcDbEntity
  8
0
  6
Continuous
 62
     7
100
AcDbCircle
 10
1035.6479734751
 20
220.301067241
 30
0.0
 40
938.6988136780432
100
AcDbArc
 50
175.8569106298
 51
179.8953143598
  0
ARC
  5
A9
330
1F
100
AcDbEntity
  8
0
  6
Continuous
 62
     7
100
AcDbCircle
 10
155.3794349081
 20
164.5445710702
 30
0.0
 40
13.40833333333358
100
AcDbArc
 50
171.4216933424
 51
188.5783066576
  0
ARC
  5
AA
330
1F
100
AcDbEntity
  8
0
  6
Continuous
 62
     7
100
AcDbCircle
 10
118.8627682414
 20
164.5445710702
 30
0.0
 40
13.40833333333354
100
AcDbArc
 50
351.4216933424
 51
8.5783066576
  0
ARC
  5
AB
330
1F
100
AcDbEntity
  8
0
  6
Continuous
 62
     7
100
AcDbCircle
 10
122.1211015747
 20
173.5445710702
 30
0.0
 40
8.000000000000014
100
AcDbArc
 50
0.0
 51
180.0
  0
ARC
  5
AC
330
1F
100
AcDbEntity
  8
0
  6
Continuous
 62
     7
100
AcDbCircle
 10
125.3794349081
 20
164.5445710702
 30
0.0
 40
13.40833333333359
100
AcDbArc
 50
171.4216933424
 51
188.5783066576
  0
ARC
  5
AD
330
1F
100
AcDbEntity
  8
0
  6
Continuous
 62
     7
100
AcDbCircle
 10
101.9022321971
 20
288.1197574339
 30
0.0
 40
2.499999999999957
100
AcDbArc
 50
90.0
 51
180.0
  0
ARC
  5
AE
330
1F
100
AcDbEntity
  8
0
  6
Continuous
 62
     7
100
AcDbCircle
 10
134.1425222476
 20
270.2552749695
 30
0.0
 40
6.999999999999924
100
AcDbArc
 50
12.3736251162
 51
347.6263748838
  0
ARC
  5
AF
330
1F
100
AcDbEntity
  8
0
  6
Continuous
 62
     7
100
AcDbCircle
 10
147.4841667149
 20
255.4256736412
 30
0.0
 40
6.999999999999973
100
AcDbArc
 50
192.3736251162
 51
167.6263748838
  0
ARC
  5
B0
330
1F
100
AcDbEntity
  8
0
  6
Continuous
 62
     7
100
AcDbCircle
 10
107.9421414991
 20
270.2552749695
 30
0.0
 40
7.000000000000006
100
AcDbArc
 50
12.3736251162
 51
347.6263748838
  0
ARC
  5
B1
330
1F
100
AcDbEntity
  8
0
  6
Continuous
 62
     7
100
AcDbCircle
 10
170.7684433176
 20
255.4256736412
 30
0.0
 40
6.999999999999973
100
AcDbArc
 50
192.3736251162
 51
167.6263748838
  0
ARC
  5
B2
330
1F
100
AcDbEntity
  8
0
  6
Continuous
 62
     7
100
AcDbCircle
 10
73.0752706712
 20
247.5677610605
 30
0.0
 40
106.1476011535503
100
AcDbArc
 50
333.1370129461
 51
14.8207259964
  0
ARC
  5
B3
330
1F
100
AcDbEntity
  8
0
  6
Continuous
 62
     7
100
AcDbCircle
 10
135.1615482977
 20
227.282042115
 30
0.0
 40
38.57196243250153
100
AcDbArc
 50
187.846562856
 51
225.8539949332
  0
ARC
  5
B4
330
1F
100
AcDbEntity
  8
0
  6
Continuous
 62
     7
100
AcDbCircle
 10
146.617562664
 20
236.2619083425
 30
0.0
 40
53.03106873665166
100
AcDbArc
 50
223.7293160363
 51
239.4249860238
  0
ARC
  5
B5
330
1F
100
AcDbEntity
  8
0
  6
Continuous
 62
     7
100
AcDbCircle
 10
152.7010939814
 20
207.2359314812
 30
0.0
 40
16.88995041681939
100
AcDbArc
 50
280.0291344531
 51
333.1370129461
  0
CIRCLE
  5
B6
330
1F
100
AcDbEntity
  8
0
  6
Continuous
 62
     7
100
AcDbCircle
 10
170.7684433176
 20
220.4256736412
 30
0.0
 40
1.999999999999995
  0
CIRCLE
  5
B7
330
1F
100
AcDbEntity
  8
0
  6
Continuous
 62
     7
100
AcDbCircle
 10
118.6211015747
 20
199.4796974725
 30
0.0
 40
1.999999999999995
  0
CIRCLE
  5
B8
330
1F
100
AcDbEntity
  8
0
  6
Continuous
 62
     7
100
AcDbCircle
 10
126.8925222476
 20
288.614056236
 30
0.0
 40
0.7500000000000301
  0
CIRCLE
  5
B9
330
1F
100
AcDbEntity
  8
0
  6
Continuous
 62
     7
100
AcDbCircle
 10
100.9395999128
 20
252.0604622248
 30
0.0
 40
1.999999999999995
  0
CIRCLE
  5
BA
330
1F
100
AcDbEntity
  8
0
  6
Continuous
 62
     7
100
AcDbCircle
 10
137.3925222476
 20
288.614056236
 30
0.0
 40
0.7500000000000436
  0
CIRCLE
  5
BB
330
1F
100
AcDbEntity
  8
0
  6
Continuous
 62
     7
100
AcDbCircle
 10
137.3925222476
 20
282.614056236
 30
0.0
 40
0.7500000000000436
  0
CIRCLE
  5
BC
330
1F
100
AcDbEntity
  8
0
  6
Continuous
 62
     7
100
AcDbCircle
 10
126.8925222476
 20
282.614056236
 30
0.0
 40
0.7500000000000301
  0
CIRCLE
  5
BD
330
1F
100
AcDbEntity
  8
0
  6
Continuous
 62
     7
100
AcDbCircle
 10
104.5271432384
 20
288.1622029397
 30
0.0
 40
0.7499999999999349
  0
CIRCLE
  5
BE
330
1F
100
AcDbEntity
  8
0
  6
Continuous
 62
     7
100
AcDbCircle
 10
115.0255440375
 20
288.3454532073
 30
0.0
 40
0.7500000000000603
  0
CIRCLE
  5
BF
330
1F
100
AcDbEntity
  8
0
  6
Continuous
 62
     7
100
AcDbCircle
 10
104.631857677
 20
282.1631167688
 30
0.0
 40
0.7500000000000436
  0
CIRCLE
  5
C0
330
1F
100
AcDbEntity
  8
0
  6
Continuous
 62
     7
100
AcDbCircle
 10
115.1302584762
 20
282.3463670364
 30
0.0
 40
0.7500000000000436
  0
CIRCLE
  5
C1
330
1F
100
AcDbEntity
  8
0
  6
Continuous
 62
     7
100
AcDbCircle
 10
155.5850216597
 20
275.7133701987
 30
0.0
 40
0.7500000000000436
  0
CIRCLE
  5
C2
330
1F
100
AcDbEntity
  8
0
  6
Continuous
 62
     7
100
AcDbCircle
 10
145.0866208606
 20
275.8966204663
 30
0.0
 40
0.7500000000000436
  0
CIRCLE
  5
C3
330
1F
100
AcDbEntity
  8
0
  6
Continuous
 62
     7
100
AcDbCircle
 10
155.6897360983
 20
281.7124563697
 30
0.0
 40
0.7500000000000165
  0
CIRCLE
  5
C4
330
1F
100
AcDbEntity
  8
0
  6
Continuous
 62
     7
100
AcDbCircle
 10
145.1913352992
 20
281.8957066372
 30
0.0
 40
0.7500000000000436
  0
CIRCLE
  5
C5
330
1F
100
AcDbEntity
  8
0
  6
Continuous
 62
     7
100
AcDbCircle
 10
160.8090739696
 20
269.2876597118
 30
0.0
 40
0.7500000000000436
  0
CIRCLE
  5
C6
330
1F
100
AcDbEntity
  8
0
  6
Continuous
 62
     7
100
AcDbCircle
 10
172.3896659759
 20
272.7718940299
 30
0.0
 40
0.7500000000000436
  0
CIRCLE
  5
C7
330
1F
100
AcDbEntity
  8
0
  6
Continuous
 62
     7
100
AcDbCircle
 10
162.1587802957
 20
275.1338801005
 30
0.0
 40
0.7499999999999621
  0
CIRCLE
  5
C8
330
1F
100
AcDbEntity
  8
0
  6
Continuous
 62
     7
100
AcDbCircle
 10
171.0399596499
 20
266.9256736412
 30
0.0
 40
0.7499999999999349
  0
ARC
  5
C9
330
1F
100
AcDbEntity
  8
0
  6
Continuous
 62
     7
100
AcDbCircle
 10
125.6211015747
 20
154.4395502878
 30
0.0
 40
5.000000000000014
100
AcDbArc
 50
0.0
 51
180.0
  0
ARC
  5
CA
330
1F
100
AcDbEntity
  8
0
  6
Continuous
 62
     7
100
AcDbCircle
 10
92.0074185507
 20
206.4796974725
 30
0.0
 40
5.000000000000014
100
AcDbArc
 50
0.0
 51
180.0
  0
LINE
  5
CB
330
1F
100
AcDbEntity
  8
0
  6
Continuous
 62
     7
100
AcDbLine
 10
17.2016005984
 20
178.967220801
 30
0.0
 11
18.2016005984
 21
180.6992716086
 31
0.0
  0
LINE
  5
CC
330
1F
100
AcDbEntity
  8
0
  6
Continuous
 62
     7
100
AcDbLine
 10
6.2260285322
 20
181.958298881
 30
0.0
 11
6.2260285322
 21
183.958298881
 31
0.0
  0
LINE
  5
CD
330
1F
100
AcDbEntity
  8
0
  6
Continuous
 62
     7
100
AcDbLine
 10
78.5976238641
 20
173.4040708743
 30
0.0
 11
70.8776238641
 21
173.4040708743
 31
0.0
  0
LINE
  5
CE
330
1F
100
AcDbEntity
  8
0
  6
Continuous
 62
     7
100
AcDbLine
 10
66.9584402756
 20
180.6040708743
 30
0.0
 11
66.9584402756
 21
176.6040708743
 31
0.0
  0
LINE
  5
CF
330
1F
100
AcDbEntity
  8
0
  6
Continuous
 62
     7
100
AcDbLine
 10
160.1211015747
 20
145.8414740765
 30
0.0
 11
168.1211015747
 21
145.8414740765
 31
0.0
  0
LINE
  5
D0
330
1F
100
AcDbEntity
  8
0
  6
Continuous
 62
     7
100
AcDbLine
 10
4.2060285322
 20
190.1097720657
 30
0.0
 11
4.2060285322
 21
174.967220801
 31
0.0
  0
LINE
  5
D1
330
1F
100
AcDbEntity
  8
0
  6
Continuous
 62
     7
100
AcDbLine
 10
160.1211015747
 20
173.5445710702
 30
0.0
 11
165.2211015747
 21
173.5445710702
 31
0.0
  0
LINE
  5
D2
330
1F
100
AcDbEntity
  8
0
  6
Continuous
 62
     7
100
AcDbLine
 10
66.9584402756
 20
180.6040708743
 30
0.0
 11
68.4776238641
 21
180.6040708743
 31
0.0
  0
LINE
  5
D3
330
1F
100
AcDbEntity
  8
0
  6
Continuous
 62
     7
100
AcDbLine
 10
140.6211015747
 20
166.5445710702
 30
0.0
 11
140.6211015747
 21
173.5445710702
 31
0.0
  0
LINE
  5
D4
330
1F
100
AcDbEntity
  8
0
  6
Continuous
 62
     7
100
AcDbLine
 10
73.8725679287
 20
180.055544059
 30
0.0
 11
73.8725679287
 21
176.055544059
 31
0.0
  0
LINE
  5
D5
330
1F
100
AcDbEntity
  8
0
  6
Continuous
 62
     7
100
AcDbLine
 10
20.6657022135
 20
186.1097720657
 30
0.0
 11
20.6657022135
 21
179.2766218777
 31
0.0
  0
LINE
  5
D6
330
1F
100
AcDbEntity
  8
0
  6
Continuous
 62
     7
100
AcDbLine
 10
7.1863548508
 20
190.1097720657
 30
0.0
 11
4.2060285322
 21
190.1097720657
 31
0.0
  0
LINE
  5
D7
330
1F
100
AcDbEntity
  8
0
  6
Continuous
 62
     7
100
AcDbLine
 10
149.1211015747
 20
173.5445710702
 30
0.0
 11
150.6211015747
 21
170.9464948588
 31
0.0
  0
LINE
  5
D8
330
1F
100
AcDbEntity
  8
0
  6
Continuous
 62
     7
100
AcDbLine
 10
78.5976238641
 20
176.055544059
 30
0.0
 11
78.5976238641
 21
173.4040708743
 31
0.0
  0
LINE
  5
D9
330
1F
100
AcDbEntity
  8
0
  6
Continuous
 62
     7
100
AcDbLine
 10
13.8370846494
 20
175.058298881
 30
0.0
 11
13.8370846494
 21
177.058298881
 31
0.0
  0
LINE
  5
DA
330
1F
100
AcDbEntity
  8
0
  6
Continuous
 62
     7
100
AcDbLine
 10
19.6657022135
 20
177.5445710702
 30
0.0
 11
19.6657022135
 21
174.4892309032
 31
0.0
  0
LINE
  5
DB
330
1F
100
AcDbEntity
  8
0
  6
Continuous
 62
     7
100
AcDbLine
 10
10.2260285322
 20
181.958298881
 30
0.0
 11
10.2260285322
 21
183.958298881
 31
0.0
  0
LINE
  5
DC
330
1F
100
AcDbEntity
  8
0
  6
Continuous
 62
     7
100
AcDbLine
 10
73.8725679287
 20
176.055544059
 30
0.0
 11
78.5976238641
 21
176.055544059
 31
0.0
  0
LINE
  5
DD
330
1F
100
AcDbEntity
  8
0
  6
Continuous
 62
     7
100
AcDbLine
 10
168.1211015747
 20
145.8414740765
 30
0.0
 11
168.1211015747
 21
149.8414740765
 31
0.0
  0
LINE
  5
DE
330
1F
100
AcDbEntity
  8
0
  6
Continuous
 62
     7
100
AcDbLine
 10
18.2016005984
 20
180.6992716086
 30
0.0
 11
20.6657022135
 21
179.2766218777
 31
0.0
  0
LINE
  5
DF
330
1F
100
AcDbEntity
  8
0
  6
Continuous
 62
     7
100
AcDbLine
 10
165.2211015747
 20
166.5445710702
 30
0.0
 11
162.1211015747
 21
166.5445710702
 31
0.0
  0
LINE
  5
E0
330
1F
100
AcDbEntity
  8
0
  6
Continuous
 62
     7
100
AcDbLine
 10
150.6211015747
 20
170.9464948588
 30
0.0
 11
153.6211015747
 21
170.9464948588
 31
0.0
  0
LINE
  5
E1
330
1F
100
AcDbEntity
  8
0
  6
Continuous
 62
     7
100
AcDbLine
 10
155.1211015747
 20
173.5445710702
 30
0.0
 11
153.6211015747
 21
176.1426472815
 31
0.0
  0
LINE
  5
E2
330
1F
100
AcDbEntity
  8
0
  6
Continuous
 62
     7
100
AcDbLine
 10
6.2260285322
 20
183.958298881
 30
0.0
 11
10.2260285322
 21
183.958298881
 31
0.0
  0
LINE
  5
E3
330
1F
100
AcDbEntity
  8
0
  6
Continuous
 62
     7
100
AcDbLine
 10
153.6211015747
 20
176.1426472815
 30
0.0
 11
150.6211015747
 21
176.1426472815
 31
0.0
  0
LINE
  5
E4
330
1F
100
AcDbEntity
  8
0
  6
Continuous
 62
     7
100
AcDbLine
 10
140.6211015747
 20
173.5445710702
 30
0.0
 11
144.1211015747
 21
173.5445710702
 31
0.0
  0
LINE
  5
E5
330
1F
100
AcDbEntity
  8
0
  6
Continuous
 62
     7
100
AcDbLine
 10
142.1211015747
 20
162.5445710702
 30
0.0
 11
162.1211015747
 21
162.5445710702
 31
0.0
  0
LINE
  5
E6
330
1F
100
AcDbEntity
  8
0
  6
Continuous
 62
     7
100
AcDbLine
 10
17.2016005984
 20
178.967220801
 30
0.0
 11
19.6657022135
 21
177.5445710702
 31
0.0
  0
LINE
  5
E7
330
1F
100
AcDbEntity
  8
0
  6
Continuous
 62
     7
100
AcDbLine
 10
142.1211015747
 20
166.5445710702
 30
0.0
 11
140.6211015747
 21
166.5445710702
 31
0.0
  0
LINE
  5
E8
330
1F
100
AcDbEntity
  8
0
  6
Continuous
 62
     7
100
AcDbLine
 10
14.2260285322
 20
181.958298881
 30
0.0
 11
14.2260285322
 21
183.958298881
 31
0.0
  0
LINE
  5
E9
330
1F
100
AcDbEntity
  8
0
  6
Continuous
 62
     7
100
AcDbLine
 10
168.1211015747
 20
149.8414740765
 30
0.0
 11
171.1211015747
 21
149.8414740765
 31
0.0
  0
LINE
  5
EA
330
1F
100
AcDbEntity
  8
0
  6
Continuous
 62
     7
100
AcDbLine
 10
18.2260285322
 20
181.958298881
 30
0.0
 11
18.2260285322
 21
183.958298881
 31
0.0
  0
LINE
  5
EB
330
1F
100
AcDbEntity
  8
0
  6
Continuous
 62
     7
100
AcDbLine
 10
171.1211015747
 20
149.8414740765
 30
0.0
 11
171.1211015747
 21
153.8414740765
 31
0.0
  0
LINE
  5
EC
330
1F
100
AcDbEntity
  8
0
  6
Continuous
 62
     7
100
AcDbLine
 10
153.6211015747
 20
170.9464948588
 30
0.0
 11
155.1211015747
 21
173.5445710702
 31
0.0
  0
LINE
  5
ED
330
1F
100
AcDbEntity
  8
0
  6
Continuous
 62
     7
100
AcDbLine
 10
165.2211015747
 20
173.5445710702
 30
0.0
 11
165.2211015747
 21
166.5445710702
 31
0.0
  0
LINE
  5
EE
330
1F
100
AcDbEntity
  8
0
  6
Continuous
 62
     7
100
AcDbLine
 10
168.1211015747
 20
153.8414740765
 30
0.0
 11
171.1211015747
 21
153.8414740765
 31
0.0
  0
LINE
  5
EF
330
1F
100
AcDbEntity
  8
0
  6
Continuous
 62
     7
100
AcDbLine
 10
168.1211015747
 20
153.8414740765
 30
0.0
 11
168.1211015747
 21
157.8414740765
 31
0.0
  0
LINE
  5
F0
330
1F
100
AcDbEntity
  8
0
  6
Continuous
 62
     7
100
AcDbLine
 10
168.1211015747
 20
157.8414740765
 30
0.0
 11
160.1211015747
 21
157.8414740765
 31
0.0
  0
LINE
  5
F1
330
1F
100
AcDbEntity
  8
0
  6
Continuous
 62
     7
100
AcDbLine
 10
160.1211015747
 20
157.8414740765
 30
0.0
 11
160.1211015747
 21
153.8414740765
 31
0.0
  0
LINE
  5
F2
330
1F
100
AcDbEntity
  8
0
  6
Continuous
 62
     7
100
AcDbLine
 10
160.1211015747
 20
153.8414740765
 30
0.0
 11
157.1211015747
 21
153.8414740765
 31
0.0
  0
LINE
  5
F3
330
1F
100
AcDbEntity
  8
0
  6
Continuous
 62
     7
100
AcDbLine
 10
157.1211015747
 20
153.8414740765
 30
0.0
 11
157.1211015747
 21
149.8414740765
 31
0.0
  0
LINE
  5
F4
330
1F
100
AcDbEntity
  8
0
  6
Continuous
 62
     7
100
AcDbLine
 10
150.6211015747
 20
176.1426472815
 30
0.0
 11
149.1211015747
 21
173.5445710702
 31
0.0
  0
LINE
  5
F5
330
1F
100
AcDbEntity
  8
0
  6
Continuous
 62
     7
100
AcDbLine
 10
130.1211015747
 20
173.5445710702
 30
0.0
 11
135.2211015747
 21
173.5445710702
 31
0.0
  0
LINE
  5
F6
330
1F
100
AcDbEntity
  8
0
  6
Continuous
 62
     7
100
AcDbLine
 10
157.1211015747
 20
149.8414740765
 30
0.0
 11
160.1211015747
 21
149.8414740765
 31
0.0
  0
LINE
  5
F7
330
1F
100
AcDbEntity
  8
0
  6
Continuous
 62
     7
100
AcDbLine
 10
160.1211015747
 20
149.8414740765
 30
0.0
 11
160.1211015747
 21
145.8414740765
 31
0.0
  0
LINE
  5
F8
330
1F
100
AcDbEntity
  8
0
  6
Continuous
 62
     7
100
AcDbLine
 10
110.6211015747
 20
166.5445710702
 30
0.0
 11
110.6211015747
 21
173.5445710702
 31
0.0
  0
LINE
  5
F9
330
1F
100
AcDbEntity
  8
0
  6
Continuous
 62
     7
100
AcDbLine
 10
167.1211015747
 20
151.8414740765
 30
0.0
 11
165.6211015747
 21
154.4395502878
 31
0.0
  0
LINE
  5
FA
330
1F
100
AcDbEntity
  8
0
  6
Continuous
 62
     7
100
AcDbLine
 10
119.1211015747
 20
173.5445710702
 30
0.0
 11
120.6211015747
 21
170.9464948588
 31
0.0
  0
LINE
  5
FB
330
1F
100
AcDbEntity
  8
0
  6
Continuous
 62
     7
100
AcDbLine
 10
165.6211015747
 20
154.4395502878
 30
0.0
 11
162.6211015747
 21
154.4395502878
 31
0.0
  0
LINE
  5
FC
330
1F
100
AcDbEntity
  8
0
  6
Continuous
 62
     7
100
AcDbLine
 10
135.2211015747
 20
166.5445710702
 30
0.0
 11
132.1211015747
 21
166.5445710702
 31
0.0
  0
LINE
  5
FD
330
1F
100
AcDbEntity
  8
0
  6
Continuous
 62
     7
100
AcDbLine
 10
120.6211015747
 20
170.9464948588
 30
0.0
 11
123.6211015747
 21
170.9464948588
 31
0.0
  0
LINE
  5
FE
330
1F
100
AcDbEntity
  8
0
  6
Continuous
 62
     7
100
AcDbLine
 10
162.6211015747
 20
154.4395502878
 30
0.0
 11
161.1211015747
 21
151.8414740765
 31
0.0
  0
LINE
  5
FF
330
1F
100
AcDbEntity
  8
0
  6
Continuous
 62
     7
100
AcDbLine
 10
161.1211015747
 20
151.8414740765
 30
0.0
 11
162.6211015747
 21
149.2433978651
 31
0.0
  0
LINE
  5
100
330
1F
100
AcDbEntity
  8
0
  6
Continuous
 62
     7
100
AcDbLine
 10
0.0
 20
0.0
 30
0.0
 11
0.0
 21
300.0
 31
0.0
  0
LINE
  5
101
330
1F
100
AcDbEntity
  8
0
  6
Continuous
 62
     7
100
AcDbLine
 10
0.0
 20
300.0
 30
0.0
 11
500.0
 21
300.0
 31
0.0
  0
LINE
  5
102
330
1F
100
AcDbEntity
  8
0
  6
Continuous
 62
     7
100
AcDbLine
 10
500.0
 20
300.0
 30
0.0
 11
500.0
 21
0.0
 31
0.0
  0
LINE
  5
103
330
1F
100
AcDbEntity
  8
0
  6
Continuous
 62
     7
100
AcDbLine
 10
500.0
 20
0.0
 30
0.0
 11
0.0
 21
0.0
 31
0.0
  0
LINE
  5
104
330
1F
100
AcDbEntity
  8
0
  6
Continuous
 62
     7
100
AcDbLine
 10
125.1211015747
 20
173.5445710702
 30
0.0
 11
123.6211015747
 21
176.1426472815
 31
0.0
  0
LINE
  5
105
330
1F
100
AcDbEntity
  8
0
  6
Continuous
 62
     7
100
AcDbLine
 10
162.6211015747
 20
149.2433978651
 30
0.0
 11
165.6211015747
 21
149.2433978651
 31
0.0
  0
LINE
  5
106
330
1F
100
AcDbEntity
  8
0
  6
Continuous
 62
     7
100
AcDbLine
 10
123.6211015747
 20
176.1426472815
 30
0.0
 11
120.6211015747
 21
176.1426472815
 31
0.0
  0
LINE
  5
107
330
1F
100
AcDbEntity
  8
0
  6
Continuous
 62
     7
100
AcDbLine
 10
110.6211015747
 20
173.5445710702
 30
0.0
 11
114.1211015747
 21
173.5445710702
 31
0.0
  0
LINE
  5
108
330
1F
100
AcDbEntity
  8
0
  6
Continuous
 62
     7
100
AcDbLine
 10
112.1211015747
 20
162.5445710702
 30
0.0
 11
132.1211015747
 21
162.5445710702
 31
0.0
  0
LINE
  5
109
330
1F
100
AcDbEntity
  8
0
  6
Continuous
 62
     7
100
AcDbLine
 10
165.6211015747
 20
149.2433978651
 30
0.0
 11
167.1211015747
 21
151.8414740765
 31
0.0
  0
LINE
  5
10A
330
1F
100
AcDbEntity
  8
0
  6
Continuous
 62
     7
100
AcDbLine
 10
142.6211015747
 20
151.8414740765
 30
0.0
 11
144.1211015747
 21
149.2433978651
 31
0.0
  0
LINE
  5
10B
330
1F
100
AcDbEntity
  8
0
  6
Continuous
 62
     7
100
AcDbLine
 10
149.6211015747
 20
157.8414740765
 30
0.0
 11
141.6211015747
 21
157.8414740765
 31
0.0
  0
LINE
  5
10C
330
1F
100
AcDbEntity
  8
0
  6
Continuous
 62
     7
100
AcDbLine
 10
141.6211015747
 20
153.8414740765
 30
0.0
 11
138.6211015747
 21
153.8414740765
 31
0.0
  0
LINE
  5
10D
330
1F
100
AcDbEntity
  8
0
  6
Continuous
 62
     7
100
AcDbLine
 10
144.1211015747
 20
154.4395502878
 30
0.0
 11
142.6211015747
 21
151.8414740765
 31
0.0
  0
LINE
  5
10E
330
1F
100
AcDbEntity
  8
0
  6
Continuous
 62
     7
100
AcDbLine
 10
112.1211015747
 20
166.5445710702
 30
0.0
 11
110.6211015747
 21
166.5445710702
 31
0.0
  0
LINE
  5
10F
330
1F
100
AcDbEntity
  8
0
  6
Continuous
 62
     7
100
AcDbLine
 10
147.1211015747
 20
154.4395502878
 30
0.0
 11
144.1211015747
 21
154.4395502878
 31
0.0
  0
LINE
  5
110
330
1F
100
AcDbEntity
  8
0
  6
Continuous
 62
     7
100
AcDbLine
 10
152.6211015747
 20
149.8414740765
 30
0.0
 11
152.6211015747
 21
153.8414740765
 31
0.0
  0
LINE
  5
111
330
1F
100
AcDbEntity
  8
0
  6
Continuous
 62
     7
100
AcDbLine
 10
123.6211015747
 20
170.9464948588
 30
0.0
 11
125.1211015747
 21
173.5445710702
 31
0.0
  0
LINE
  5
112
330
1F
100
AcDbEntity
  8
0
  6
Continuous
 62
     7
100
AcDbLine
 10
149.6211015747
 20
153.8414740765
 30
0.0
 11
149.6211015747
 21
157.8414740765
 31
0.0
  0
LINE
  5
113
330
1F
100
AcDbEntity
  8
0
  6
Continuous
 62
     7
100
AcDbLine
 10
138.6211015747
 20
153.8414740765
 30
0.0
 11
138.6211015747
 21
149.8414740765
 31
0.0
  0
LINE
  5
114
330
1F
100
AcDbEntity
  8
0
  6
Continuous
 62
     7
100
AcDbLine
 10
135.2211015747
 20
173.5445710702
 30
0.0
 11
135.2211015747
 21
166.5445710702
 31
0.0
  0
LINE
  5
115
330
1F
100
AcDbEntity
  8
0
  6
Continuous
 62
     7
100
AcDbLine
 10
120.6211015747
 20
176.1426472815
 30
0.0
 11
119.1211015747
 21
173.5445710702
 31
0.0
  0
LINE
  5
116
330
1F
100
AcDbEntity
  8
0
  6
Continuous
 62
     7
100
AcDbLine
 10
138.6211015747
 20
149.8414740765
 30
0.0
 11
141.6211015747
 21
149.8414740765
 31
0.0
  0
LINE
  5
117
330
1F
100
AcDbEntity
  8
0
  6
Continuous
 62
     7
100
AcDbLine
 10
141.6211015747
 20
145.8414740765
 30
0.0
 11
149.6211015747
 21
145.8414740765
 31
0.0
  0
LINE
  5
118
330
1F
100
AcDbEntity
  8
0
  6
Continuous
 62
     7
100
AcDbLine
 10
149.6211015747
 20
153.8414740765
 30
0.0
 11
152.6211015747
 21
153.8414740765
 31
0.0
  0
LINE
  5
119
330
1F
100
AcDbEntity
  8
0
  6
Continuous
 62
     7
100
AcDbLine
 10
26.9665184595
 20
147.2101986131
 30
0.0
 11
29.7949455843
 21
150.0386257378
 31
0.0
  0
LINE
  5
11A
330
1F
100
AcDbEntity
  8
0
  6
Continuous
 62
     7
100
AcDbLine
 10
141.6211015747
 20
149.8414740765
 30
0.0
 11
141.6211015747
 21
145.8414740765
 31
0.0
  0
LINE
  5
11B
330
1F
100
AcDbEntity
  8
0
  6
Continuous
 62
     7
100
AcDbLine
 10
55.250789707
 20
124.5827816151
 30
0.0
 11
52.4223625822
 21
121.7543544904
 31
0.0
  0
LINE
  5
11C
330
1F
100
AcDbEntity
  8
0
  6
Continuous
 62
     7
100
AcDbLine
 10
58.0792168317
 20
127.4112087399
 30
0.0
 11
60.9076439565
 21
130.2396358646
 31
0.0
  0
LINE
  5
11D
330
1F
100
AcDbEntity
  8
0
  6
Continuous
 62
     7
100
AcDbLine
 10
144.1211015747
 20
149.2433978651
 30
0.0
 11
147.1211015747
 21
149.2433978651
 31
0.0
  0
LINE
  5
11E
330
1F
100
AcDbEntity
  8
0
  6
Continuous
 62
     7
100
AcDbLine
 10
147.1211015747
 20
149.2433978651
 30
0.0
 11
148.6211015747
 21
151.8414740765
 31
0.0
  0
LINE
  5
11F
330
1F
100
AcDbEntity
  8
0
  6
Continuous
 62
     7
100
AcDbLine
 10
35.4517998338
 20
155.6954799873
 30
0.0
 11
32.623372709
 21
152.8670528626
 31
0.0
  0
LINE
  5
120
330
1F
100
AcDbEntity
  8
0
  6
Continuous
 62
     7
100
AcDbLine
 10
165.1211015747
 20
178.5491213959
 30
0.0
 11
165.1211015747
 21
181.5491213959
 31
0.0
  0
LINE
  5
121
330
1F
100
AcDbEntity
  8
0
  6
Continuous
 62
     7
100
AcDbLine
 10
141.6211015747
 20
157.8414740765
 30
0.0
 11
141.6211015747
 21
153.8414740765
 31
0.0
  0
LINE
  5
122
330
1F
100
AcDbEntity
  8
0
  6
Continuous
 62
     7
100
AcDbLine
 10
149.6211015747
 20
145.8414740765
 30
0.0
 11
149.6211015747
 21
149.8414740765
 31
0.0
  0
LINE
  5
123
330
1F
100
AcDbEntity
  8
0
  6
Continuous
 62
     7
100
AcDbLine
 10
165.1211015747
 20
181.5491213959
 30
0.0
 11
160.1211015747
 21
181.5491213959
 31
0.0
  0
LINE
  5
124
330
1F
100
AcDbEntity
  8
0
  6
Continuous
 62
     7
100
AcDbLine
 10
148.6211015747
 20
151.8414740765
 30
0.0
 11
147.1211015747
 21
154.4395502878
 31
0.0
  0
LINE
  5
125
330
1F
100
AcDbEntity
  8
0
  6
Continuous
 62
     7
100
AcDbLine
 10
149.6211015747
 20
149.8414740765
 30
0.0
 11
152.6211015747
 21
149.8414740765
 31
0.0
  0
LINE
  5
126
330
1F
100
AcDbEntity
  8
0
  6
Continuous
 62
     7
100
AcDbLine
 10
160.1211015747
 20
181.5491213959
 30
0.0
 11
160.1211015747
 21
187.5491213959
 31
0.0
  0
LINE
  5
127
330
1F
100
AcDbEntity
  8
0
  6
Continuous
 62
     7
100
AcDbLine
 10
160.1211015747
 20
187.5491213959
 30
0.0
 11
170.1211015747
 21
187.5491213959
 31
0.0
  0
LINE
  5
128
330
1F
100
AcDbEntity
  8
0
  6
Continuous
 62
     7
100
AcDbLine
 10
170.1211015747
 20
187.5491213959
 30
0.0
 11
170.1211015747
 21
178.5491213959
 31
0.0
  0
LINE
  5
129
330
1F
100
AcDbEntity
  8
0
  6
Continuous
 62
     7
100
AcDbLine
 10
170.1211015747
 20
178.5491213959
 30
0.0
 11
165.1211015747
 21
178.5491213959
 31
0.0
  0
LINE
  5
12A
330
1F
100
AcDbEntity
  8
0
  6
Continuous
 62
     7
100
AcDbLine
 10
167.6211015747
 20
133.9395502878
 30
0.0
 11
167.6211015747
 21
136.9395502878
 31
0.0
  0
LINE
  5
12B
330
1F
100
AcDbEntity
  8
0
  6
Continuous
 62
     7
100
AcDbLine
 10
167.6211015747
 20
136.9395502878
 30
0.0
 11
162.6211015747
 21
136.9395502878
 31
0.0
  0
LINE
  5
12C
330
1F
100
AcDbEntity
  8
0
  6
Continuous
 62
     7
100
AcDbLine
 10
162.6211015747
 20
136.9395502878
 30
0.0
 11
162.6211015747
 21
142.9395502878
 31
0.0
  0
LINE
  5
12D
330
1F
100
AcDbEntity
  8
0
  6
Continuous
 62
     7
100
AcDbLine
 10
162.6211015747
 20
142.9395502878
 30
0.0
 11
172.6211015747
 21
142.9395502878
 31
0.0
  0
LINE
  5
12E
330
1F
100
AcDbEntity
  8
0
  6
Continuous
 62
     7
100
AcDbLine
 10
172.6211015747
 20
142.9395502878
 30
0.0
 11
172.6211015747
 21
133.9395502878
 31
0.0
  0
LINE
  5
12F
330
1F
100
AcDbEntity
  8
0
  6
Continuous
 62
     7
100
AcDbLine
 10
172.6211015747
 20
133.9395502878
 30
0.0
 11
167.6211015747
 21
133.9395502878
 31
0.0
  0
LINE
  5
130
330
1F
100
AcDbEntity
  8
0
  6
Continuous
 62
     7
100
AcDbLine
 10
153.6211015747
 20
126.9395502878
 30
0.0
 11
158.5542757795
 21
126.9395502878
 31
0.0
  0
LINE
  5
131
330
1F
100
AcDbEntity
  8
0
  6
Continuous
 62
     7
100
AcDbLine
 10
145.6211015747
 20
126.9395502878
 30
0.0
 11
141.6211015747
 21
126.9395502878
 31
0.0
  0
LINE
  5
132
330
1F
100
AcDbEntity
  8
0
  6
Continuous
 62
     7
100
AcDbLine
 10
141.6211015747
 20
126.9395502878
 30
0.0
 11
141.6211015747
 21
142.9395502878
 31
0.0
  0
LINE
  5
133
330
1F
100
AcDbEntity
  8
0
  6
Continuous
 62
     7
100
AcDbLine
 10
141.6211015747
 20
142.9395502878
 30
0.0
 11
153.5542757795
 21
142.9395502878
 31
0.0
  0
LINE
  5
134
330
1F
100
AcDbEntity
  8
0
  6
Continuous
 62
     7
100
AcDbLine
 10
153.6211015747
 20
126.9395502878
 30
0.0
 11
153.6211015747
 21
122.9395502878
 31
0.0
  0
LINE
  5
135
330
1F
100
AcDbEntity
  8
0
  6
Continuous
 62
     7
100
AcDbLine
 10
153.6211015747
 20
122.9395502878
 30
0.0
 11
145.6211015747
 21
122.9395502878
 31
0.0
  0
LINE
  5
136
330
1F
100
AcDbEntity
  8
0
  6
Continuous
 62
     7
100
AcDbLine
 10
145.6211015747
 20
122.9395502878
 30
0.0
 11
145.6211015747
 21
126.9395502878
 31
0.0
  0
LINE
  5
137
330
1F
100
AcDbEntity
  8
0
  6
Continuous
 62
     7
100
AcDbLine
 10
158.5542757795
 20
137.9395502878
 30
0.0
 11
158.5542757795
 21
126.9395502878
 31
0.0
  0
LINE
  5
138
330
1F
100
AcDbEntity
  8
0
  6
Continuous
 62
     7
100
AcDbLine
 10
101.0074185507
 20
156.5330745921
 30
0.0
 11
108.2255065558
 21
156.5350565215
 31
0.0
  0
LINE
  5
139
330
1F
100
AcDbEntity
  8
0
  6
Continuous
 62
     7
100
AcDbLine
 10
108.2255065558
 20
156.5350565215
 30
0.0
 11
108.2255065558
 21
154.4395502878
 31
0.0
  0
LINE
  5
13A
330
1F
100
AcDbEntity
  8
0
  6
Continuous
 62
     7
100
AcDbLine
 10
112.2255065558
 20
154.4395502878
 30
0.0
 11
112.2255065558
 21
134.4395502878
 31
0.0
  0
LINE
  5
13B
330
1F
100
AcDbEntity
  8
0
  6
Continuous
 62
     7
100
AcDbLine
 10
108.2255065558
 20
134.4395502878
 30
0.0
 11
108.2255065558
 21
131.4395502878
 31
0.0
  0
LINE
  5
13C
330
1F
100
AcDbEntity
  8
0
  6
Continuous
 62
     7
100
AcDbLine
 10
108.2255065558
 20
131.4395502878
 30
0.0
 11
101.2255065558
 21
131.4395502878
 31
0.0
  0
LINE
  5
13D
330
1F
100
AcDbEntity
  8
0
  6
Continuous
 62
     7
100
AcDbLine
 10
101.2255065558
 20
131.4395502878
 30
0.0
 11
101.2255065558
 21
134.4395502878
 31
0.0
  0
LINE
  5
13E
330
1F
100
AcDbEntity
  8
0
  6
Continuous
 62
     7
100
AcDbLine
 10
101.2255065558
 20
134.4395502878
 30
0.0
 11
97.3986722322
 21
134.4395502878
 31
0.0
  0
LINE
  5
13F
330
1F
100
AcDbEntity
  8
0
  6
Continuous
 62
     7
100
AcDbLine
 10
97.3986722322
 20
134.4395502878
 30
0.0
 11
97.3986722322
 21
135.2962611964
 31
0.0
  0
LINE
  5
140
330
1F
100
AcDbEntity
  8
0
  6
Continuous
 62
     7
100
AcDbLine
 10
101.0074185507
 20
156.5330745921
 30
0.0
 11
100.3255065558
 21
154.4944741751
 31
0.0
  0
LINE
  5
141
330
1F
100
AcDbEntity
  8
0
  6
Continuous
 62
     7
100
AcDbLine
 10
99.5171528326
 20
154.3880523885
 30
0.0
 11
98.3308478122
 21
156.1806973694
 31
0.0
  0
LINE
  5
142
330
1F
100
AcDbEntity
  8
0
  6
Continuous
 62
     7
100
AcDbLine
 10
98.3308478122
 20
156.1806973694
 30
0.0
 11
97.9095341392
 21
156.0678067109
 31
0.0
  0
LINE
  5
143
330
1F
100
AcDbEntity
  8
0
  6
Continuous
 62
     7
100
AcDbLine
 10
97.9095341392
 20
156.0678067109
 30
0.0
 11
97.7784863453
 21
153.9221781073
 31
0.0
  0
LINE
  5
144
330
1F
100
AcDbEntity
  8
0
  6
Continuous
 62
     7
100
AcDbLine
 10
97.0252205924
 20
153.6101652164
 30
0.0
 11
95.4153672732
 21
155.0346889682
 31
0.0
  0
LINE
  5
145
330
1F
100
AcDbEntity
  8
0
  6
Continuous
 62
     7
100
AcDbLine
 10
95.4153672732
 20
155.0346889682
 30
0.0
 11
95.0376277679
 21
154.8166009631
 31
0.0
  0
LINE
  5
146
330
1F
100
AcDbEntity
  8
0
  6
Continuous
 62
     7
100
AcDbLine
 10
114.8387967293
 20
189.3488354325
 30
0.0
 11
110.3688852797
 21
189.3488354325
 31
0.0
  0
LINE
  5
147
330
1F
100
AcDbEntity
  8
0
  6
Continuous
 62
     7
100
AcDbLine
 10
110.3688852797
 20
183.3488354325
 30
0.0
 11
110.3511015747
 21
180.6040708743
 31
0.0
  0
LINE
  5
148
330
1F
100
AcDbEntity
  8
0
  6
Continuous
 62
     7
100
AcDbLine
 10
110.3688852797
 20
183.3488354325
 30
0.0
 11
113.2311015747
 21
183.3488354325
 31
0.0
  0
LINE
  5
149
330
1F
100
AcDbEntity
  8
0
  6
Continuous
 62
     7
100
AcDbLine
 10
113.2311015747
 20
183.3488354325
 30
0.0
 11
113.2330835042
 21
183.5669234376
 31
0.0
  0
LINE
  5
14A
330
1F
100
AcDbEntity
  8
0
  6
Continuous
 62
     7
100
AcDbLine
 10
110.3511015747
 20
180.6040708743
 30
0.0
 11
105.6211015747
 21
180.6040708743
 31
0.0
  0
LINE
  5
14B
330
1F
100
AcDbEntity
  8
0
  6
Continuous
 62
     7
100
AcDbLine
 10
113.2330835042
 20
183.5669234376
 30
0.0
 11
115.2716839211
 21
184.2488354325
 31
0.0
  0
LINE
  5
14C
330
1F
100
AcDbEntity
  8
0
  6
Continuous
 62
     7
100
AcDbLine
 10
115.2716839211
 20
184.2488354325
 30
0.0
 11
115.3781057077
 21
185.0571891557
 31
0.0
  0
LINE
  5
14D
330
1F
100
AcDbEntity
  8
0
  6
Continuous
 62
     7
100
AcDbLine
 10
115.3781057077
 20
185.0571891557
 30
0.0
 11
113.5854607268
 21
186.2434941761
 31
0.0
  0
LINE
  5
14E
330
1F
100
AcDbEntity
  8
0
  6
Continuous
 62
     7
100
AcDbLine
 10
113.5854607268
 20
186.2434941761
 30
0.0
 11
113.6983513853
 21
186.6648078492
 31
0.0
  0
LINE
  5
14F
330
1F
100
AcDbEntity
  8
0
  6
Continuous
 62
     7
100
AcDbLine
 10
113.6983513853
 20
186.6648078492
 30
0.0
 11
115.8439799889
 21
186.7958556431
 31
0.0
  0
LINE
  5
150
330
1F
100
AcDbEntity
  8
0
  6
Continuous
 62
     7
100
AcDbLine
 10
115.8439799889
 20
186.7958556431
 30
0.0
 11
116.1559928798
 21
187.5491213959
 31
0.0
  0
LINE
  5
151
330
1F
100
AcDbEntity
  8
0
  6
Continuous
 62
     7
100
AcDbLine
 10
116.1559928798
 20
187.5491213959
 30
0.0
 11
114.731469128
 21
189.1589747151
 31
0.0
  0
LINE
  5
152
330
1F
100
AcDbEntity
  8
0
  6
Continuous
 62
     7
100
AcDbLine
 10
114.731469128
 20
189.1589747151
 30
0.0
 11
114.8387967293
 21
189.3488354325
 31
0.0
  0
LINE
  5
153
330
1F
100
AcDbEntity
  8
0
  6
Continuous
 62
     7
100
AcDbLine
 10
110.3511015747
 20
190.6040708743
 30
0.0
 11
105.6211015747
 21
190.6040708743
 31
0.0
  0
LINE
  5
154
330
1F
100
AcDbEntity
  8
0
  6
Continuous
 62
     7
100
AcDbLine
 10
105.6211015747
 20
180.6040708743
 30
0.0
 11
105.6211015747
 21
190.6040708743
 31
0.0
  0
LINE
  5
155
330
1F
100
AcDbEntity
  8
0
  6
Continuous
 62
     7
100
AcDbLine
 10
110.3511015747
 20
190.6040708743
 30
0.0
 11
110.3688852797
 21
189.3488354325
 31
0.0
  0
LINE
  5
156
330
1F
100
AcDbEntity
  8
0
  6
Continuous
 62
     7
100
AcDbLine
 10
95.0376277679
 20
154.8166009631
 30
0.0
 11
95.4663748656
 21
152.7101652164
 31
0.0
  0
LINE
  5
157
330
1F
100
AcDbEntity
  8
0
  6
Continuous
 62
     7
100
AcDbLine
 10
94.8195308993
 20
152.2138243841
 30
0.0
 11
92.8958381246
 21
153.1731479673
 31
0.0
  0
LINE
  5
158
330
1F
100
AcDbEntity
  8
0
  6
Continuous
 62
     7
100
AcDbLine
 10
92.8958381246
 20
153.1731479673
 30
0.0
 11
92.58741511
 21
152.8647249527
 31
0.0
  0
LINE
  5
159
330
1F
100
AcDbEntity
  8
0
  6
Continuous
 62
     7
100
AcDbLine
 10
92.58741511
 20
152.8647249527
 30
0.0
 11
93.5467386932
 21
150.941032178
 31
0.0
  0
LINE
  5
15A
330
1F
100
AcDbEntity
  8
0
  6
Continuous
 62
     7
100
AcDbLine
 10
93.0503978609
 20
150.2941882117
 30
0.0
 11
90.9439621142
 21
150.7229353094
 31
0.0
  0
LINE
  5
15B
330
1F
100
AcDbEntity
  8
0
  6
Continuous
 62
     7
100
AcDbLine
 10
90.9439621142
 20
150.7229353094
 30
0.0
 11
90.7258741091
 21
150.3451958041
 31
0.0
  0
LINE
  5
15C
330
1F
100
AcDbEntity
  8
0
  6
Continuous
 62
     7
100
AcDbLine
 10
90.7258741091
 20
150.3451958041
 30
0.0
 11
92.1503978609
 21
148.7353424849
 31
0.0
  0
LINE
  5
15D
330
1F
100
AcDbEntity
  8
0
  6
Continuous
 62
     7
100
AcDbLine
 10
91.83838497
 20
147.982076732
 30
0.0
 11
89.6927563664
 21
147.8510289382
 31
0.0
  0
LINE
  5
15E
330
1F
100
AcDbEntity
  8
0
  6
Continuous
 62
     7
100
AcDbLine
 10
89.6927563664
 20
147.8510289382
 30
0.0
 11
89.579865708
 21
147.4297152651
 31
0.0
  0
LINE
  5
15F
330
1F
100
AcDbEntity
  8
0
  6
Continuous
 62
     7
100
AcDbLine
 10
89.579865708
 20
147.4297152651
 30
0.0
 11
91.3725106888
 21
146.2434102447
 31
0.0
  0
LINE
  5
160
330
1F
100
AcDbEntity
  8
0
  6
Continuous
 62
     7
100
AcDbLine
 10
91.2660889022
 20
145.4350565215
 30
0.0
 11
89.2274884853
 21
144.7531445266
 31
0.0
  0
LINE
  5
161
330
1F
100
AcDbEntity
  8
0
  6
Continuous
 62
     7
100
AcDbLine
 10
89.2274884853
 20
144.7531445266
 30
0.0
 11
89.2274884853
 21
144.3169685164
 31
0.0
  0
LINE
  5
162
330
1F
100
AcDbEntity
  8
0
  6
Continuous
 62
     7
100
AcDbLine
 10
89.2274884853
 20
144.3169685164
 30
0.0
 11
91.2660889022
 21
143.6350565215
 31
0.0
  0
LINE
  5
163
330
1F
100
AcDbEntity
  8
0
  6
Continuous
 62
     7
100
AcDbLine
 10
91.3725106888
 20
142.8267027982
 30
0.0
 11
89.579865708
 21
141.6403977778
 31
0.0
  0
LINE
  5
164
330
1F
100
AcDbEntity
  8
0
  6
Continuous
 62
     7
100
AcDbLine
 10
89.579865708
 20
141.6403977778
 30
0.0
 11
89.6927563664
 21
141.2190841048
 31
0.0
  0
LINE
  5
165
330
1F
100
AcDbEntity
  8
0
  6
Continuous
 62
     7
100
AcDbLine
 10
89.6927563664
 20
141.2190841048
 30
0.0
 11
91.83838497
 21
141.0880363109
 31
0.0
  0
LINE
  5
166
330
1F
100
AcDbEntity
  8
0
  6
Continuous
 62
     7
100
AcDbLine
 10
92.1503978609
 20
140.3347705581
 30
0.0
 11
90.7258741091
 21
138.7249172388
 31
0.0
  0
LINE
  5
167
330
1F
100
AcDbEntity
  8
0
  6
Continuous
 62
     7
100
AcDbLine
 10
90.7258741091
 20
138.7249172388
 30
0.0
 11
90.9439621142
 21
138.3471777335
 31
0.0
  0
LINE
  5
168
330
1F
100
AcDbEntity
  8
0
  6
Continuous
 62
     7
100
AcDbLine
 10
90.9439621142
 20
138.3471777335
 30
0.0
 11
93.0503978609
 21
138.7759248312
 31
0.0
  0
LINE
  5
169
330
1F
100
AcDbEntity
  8
0
  6
Continuous
 62
     7
100
AcDbLine
 10
93.5467386932
 20
138.129080865
 30
0.0
 11
92.58741511
 21
136.2053880902
 31
0.0
  0
LINE
  5
16A
330
1F
100
AcDbEntity
  8
0
  6
Continuous
 62
     7
100
AcDbLine
 10
92.58741511
 20
136.2053880902
 30
0.0
 11
92.8958381246
 21
135.8969650757
 31
0.0
  0
LINE
  5
16B
330
1F
100
AcDbEntity
  8
0
  6
Continuous
 62
     7
100
AcDbLine
 10
92.8958381246
 20
135.8969650757
 30
0.0
 11
94.8195308993
 21
136.8562886588
 31
0.0
  0
LINE
  5
16C
330
1F
100
AcDbEntity
  8
0
  6
Continuous
 62
     7
100
AcDbLine
 10
95.4663748656
 20
136.3599478265
 30
0.0
 11
95.0376277679
 21
134.2535120798
 31
0.0
  0
LINE
  5
16D
330
1F
100
AcDbEntity
  8
0
  6
Continuous
 62
     7
100
AcDbLine
 10
95.0376277679
 20
134.2535120798
 30
0.0
 11
95.4153672732
 21
134.0354240747
 31
0.0
  0
LINE
  5
16E
330
1F
100
AcDbEntity
  8
0
  6
Continuous
 62
     7
100
AcDbLine
 10
95.4153672732
 20
134.0354240747
 30
0.0
 11
97.0252205924
 21
135.4599478265
 31
0.0
  0
LINE
  5
16F
330
1F
100
AcDbEntity
  8
0
  6
Continuous
 62
     7
100
AcDbLine
 10
82.6374414791
 20
290.6197574339
 30
0.0
 11
90.6374414791
 21
290.6197574339
 31
0.0
  0
LINE
  5
170
330
1F
100
AcDbEntity
  8
0
  6
Continuous
 62
     7
100
AcDbLine
 10
90.6374414791
 20
280.6197574339
 30
0.0
 11
82.6374414791
 21
280.6197574339
 31
0.0
  0
LINE
  5
171
330
1F
100
AcDbEntity
  8
0
  6
Continuous
 62
     7
100
AcDbLine
 10
82.6374414791
 20
290.6197574339
 30
0.0
 11
82.6374414791
 21
280.6197574339
 31
0.0
  0
LINE
  5
172
330
1F
100
AcDbEntity
  8
0
  6
Continuous
 62
     7
100
AcDbLine
 10
90.6374414791
 20
290.6197574339
 30
0.0
 11
90.6374414791
 21
280.6197574339
 31
0.0
  0
LINE
  5
173
330
1F
100
AcDbEntity
  8
0
  6
Continuous
 62
     7
100
AcDbLine
 10
38.9585019148
 20
286.6197570705
 30
0.0
 11
38.9585019148
 21
284.6197570705
 31
0.0
  0
LINE
  5
174
330
1F
100
AcDbEntity
  8
0
  6
Continuous
 62
     7
100
AcDbLine
 10
47.9585019148
 20
286.6197570705
 30
0.0
 11
38.9585019148
 21
286.6197570705
 31
0.0
  0
LINE
  5
175
330
1F
100
AcDbEntity
  8
0
  6
Continuous
 62
     7
100
AcDbLine
 10
38.9585019148
 20
284.6197570705
 30
0.0
 11
47.9585019148
 21
284.6197570705
 31
0.0
  0
LINE
  5
176
330
1F
100
AcDbEntity
  8
0
  6
Continuous
 62
     7
100
AcDbLine
 10
47.9585019148
 20
284.6197570705
 30
0.0
 11
47.9585019148
 21
286.6197570705
 31
0.0
  0
LINE
  5
177
330
1F
100
AcDbEntity
  8
0
  6
Continuous
 62
     7
100
AcDbLine
 10
39.937081208
 20
205.6097574274
 30
0.0
 11
43.937081208
 21
205.6097574274
 31
0.0
  0
LINE
  5
178
330
1F
100
AcDbEntity
  8
0
  6
Continuous
 62
     7
100
AcDbLine
 10
13.2182118304
 20
290.1254586254
 30
0.0
 11
29.4157444919
 21
290.4081882122
 31
0.0
  0
LINE
  5
179
330
1F
100
AcDbEntity
  8
0
  6
Continuous
 62
     7
100
AcDbLine
 10
51.5585018803
 20
290.6197574339
 30
0.0
 11
35.3585018803
 21
290.6197574339
 31
0.0
  0
LINE
  5
17A
330
1F
100
AcDbEntity
  8
0
  6
Continuous
 62
     7
100
AcDbLine
 10
55.937081208
 20
208.1097574274
 30
0.0
 11
43.937081208
 21
208.1097574274
 31
0.0
  0
LINE
  5
17B
330
1F
100
AcDbEntity
  8
0
  6
Continuous
 62
     7
100
AcDbLine
 10
53.7013800167
 20
283.9507664314
 30
0.0
 11
69.8989126783
 21
283.6680370765
 31
0.0
  0
LINE
  5
17C
330
1F
100
AcDbEntity
  8
0
  6
Continuous
 62
     7
100
AcDbLine
 10
76.5844229508
 20
265.4313748326
 30
0.0
 11
81.5844229508
 21
265.4313748326
 31
0.0
  0
LINE
  5
17D
330
1F
100
AcDbEntity
  8
0
  6
Continuous
 62
     7
100
AcDbLine
 10
30.9584402756
 20
190.1097720657
 30
0.0
 11
30.9584402756
 21
184.1097720657
 31
0.0
  0
LINE
  5
17E
330
1F
100
AcDbEntity
  8
0
  6
Continuous
 62
     7
100
AcDbLine
 10
76.5844229508
 20
263.4313748326
 30
0.0
 11
81.5844229508
 21
263.4313748326
 31
0.0
  0
LINE
  5
17F
330
1F
100
AcDbEntity
  8
0
  6
Continuous
 62
     7
100
AcDbLine
 10
81.5844229508
 20
263.4313748326
 30
0.0
 11
81.5844229508
 21
265.4313748326
 31
0.0
  0
LINE
  5
180
330
1F
100
AcDbEntity
  8
0
  6
Continuous
 62
     7
100
AcDbLine
 10
76.5844229508
 20
265.4313748326
 30
0.0
 11
76.5844229508
 21
263.4313748326
 31
0.0
  0
LINE
  5
181
330
1F
100
AcDbEntity
  8
0
  6
Continuous
 62
     7
100
AcDbLine
 10
16.6191872527
 20
286.1812218933
 30
0.0
 11
25.6178165091
 21
286.3382935512
 31
0.0
  0
LINE
  5
182
330
1F
100
AcDbEntity
  8
0
  6
Continuous
 62
     7
100
AcDbLine
 10
16.6191872527
 20
286.1812218933
 30
0.0
 11
16.6540920655
 21
284.181526503
 31
0.0
  0
LINE
  5
183
330
1F
100
AcDbEntity
  8
0
  6
Continuous
 62
     7
100
AcDbLine
 10
16.6540920655
 20
284.181526503
 30
0.0
 11
25.652721322
 21
284.3385981609
 31
0.0
  0
LINE
  5
184
330
1F
100
AcDbEntity
  8
0
  6
Continuous
 62
     7
100
AcDbLine
 10
25.652721322
 20
284.3385981609
 30
0.0
 11
25.6178165091
 21
286.3382935512
 31
0.0
  0
LINE
  5
185
330
1F
100
AcDbEntity
  8
0
  6
Continuous
 62
     7
100
AcDbLine
 10
59.3001463481
 20
265.5096060519
 30
0.0
 11
64.3001463481
 21
265.5096060519
 31
0.0
  0
LINE
  5
186
330
1F
100
AcDbEntity
  8
0
  6
Continuous
 62
     7
100
AcDbLine
 10
59.3001463481
 20
263.5096060519
 30
0.0
 11
64.3001463481
 21
263.5096060519
 31
0.0
  0
LINE
  5
187
330
1F
100
AcDbEntity
  8
0
  6
Continuous
 62
     7
100
AcDbLine
 10
64.3001463481
 20
263.5096060519
 30
0.0
 11
64.3001463481
 21
265.5096060519
 31
0.0
  0
LINE
  5
188
330
1F
100
AcDbEntity
  8
0
  6
Continuous
 62
     7
100
AcDbLine
 10
59.3001463481
 20
265.5096060519
 30
0.0
 11
59.3001463481
 21
263.5096060519
 31
0.0
  0
LINE
  5
189
330
1F
100
AcDbEntity
  8
0
  6
Continuous
 62
     7
100
AcDbLine
 10
40.9585018809
 20
280.260976161
 30
0.0
 11
45.9585018809
 21
280.260976161
 31
0.0
  0
LINE
  5
18A
330
1F
100
AcDbEntity
  8
0
  6
Continuous
 62
     7
100
AcDbLine
 10
57.2310220942
 20
279.8885469811
 30
0.0
 11
57.1961172813
 21
277.8888515908
 31
0.0
  0
LINE
  5
18B
330
1F
100
AcDbEntity
  8
0
  6
Continuous
 62
     7
100
AcDbLine
 10
57.1961172813
 20
277.8888515908
 30
0.0
 11
66.1947465377
 21
277.7317799329
 31
0.0
  0
LINE
  5
18C
330
1F
100
AcDbEntity
  8
0
  6
Continuous
 62
     7
100
AcDbLine
 10
40.9585018809
 20
278.260976161
 30
0.0
 11
45.9585018809
 21
278.260976161
 31
0.0
  0
LINE
  5
18D
330
1F
100
AcDbEntity
  8
0
  6
Continuous
 62
     7
100
AcDbLine
 10
66.2296513506
 20
279.7314753232
 30
0.0
 11
57.2310220942
 21
279.8885469811
 31
0.0
  0
LINE
  5
18E
330
1F
100
AcDbEntity
  8
0
  6
Continuous
 62
     7
100
AcDbLine
 10
66.1947465377
 20
277.7317799329
 30
0.0
 11
66.2296513506
 21
279.7314753232
 31
0.0
  0
LINE
  5
18F
330
1F
100
AcDbEntity
  8
0
  6
Continuous
 62
     7
100
AcDbLine
 10
51.5585018803
 20
290.6197574339
 30
0.0
 11
53.7013800167
 21
283.9507664314
 31
0.0
  0
LINE
  5
190
330
1F
100
AcDbEntity
  8
0
  6
Continuous
 62
     7
100
AcDbLine
 10
45.9585018809
 20
278.260976161
 30
0.0
 11
45.9585018809
 21
280.260976161
 31
0.0
  0
LINE
  5
191
330
1F
100
AcDbEntity
  8
0
  6
Continuous
 62
     7
100
AcDbLine
 10
71.1614274189
 20
277.5937079011
 30
0.0
 11
87.0074185507
 21
274.2255385098
 31
0.0
  0
LINE
  5
192
330
1F
100
AcDbEntity
  8
0
  6
Continuous
 62
     7
100
AcDbLine
 10
40.9585018809
 20
280.260976161
 30
0.0
 11
40.9585018809
 21
278.260976161
 31
0.0
  0
LINE
  5
193
330
1F
100
AcDbEntity
  8
0
  6
Continuous
 62
     7
100
AcDbLine
 10
82.6374414791
 20
270.9847534149
 30
0.0
 11
73.868110896
 21
273.009312904
 31
0.0
  0
LINE
  5
194
330
1F
100
AcDbEntity
  8
0
  6
Continuous
 62
     7
100
AcDbLine
 10
45.5700005599
 20
243.9618489658
 30
0.0
 11
44.9428297803
 21
237.9947175936
 31
0.0
  0
LINE
  5
195
330
1F
100
AcDbEntity
  8
0
  6
Continuous
 62
     7
100
AcDbLine
 10
73.868110896
 20
273.009312904
 30
0.0
 11
73.4182087873
 21
271.0605727744
 31
0.0
  0
LINE
  5
196
330
1F
100
AcDbEntity
  8
0
  6
Continuous
 62
     7
100
AcDbLine
 10
18.7581211324
 20
280.260976161
 30
0.0
 11
23.7581211324
 21
280.260976161
 31
0.0
  0
LINE
  5
197
330
1F
100
AcDbEntity
  8
0
  6
Continuous
 62
     7
100
AcDbLine
 10
29.4157444919
 20
290.4081882122
 30
0.0
 11
35.3585018803
 21
290.6197574339
 31
0.0
  0
LINE
  5
198
330
1F
100
AcDbEntity
  8
0
  6
Continuous
 62
     7
100
AcDbLine
 10
69.8989126783
 20
283.6680370765
 30
0.0
 11
71.1614274189
 21
277.5937079011
 31
0.0
  0
LINE
  5
199
330
1F
100
AcDbEntity
  8
0
  6
Continuous
 62
     7
100
AcDbLine
 10
18.7581211324
 20
278.260976161
 30
0.0
 11
23.7581211324
 21
278.260976161
 31
0.0
  0
LINE
  5
19A
330
1F
100
AcDbEntity
  8
0
  6
Continuous
 62
     7
100
AcDbLine
 10
73.4182087873
 20
271.0605727744
 30
0.0
 11
82.1875393704
 21
269.0360132853
 31
0.0
  0
LINE
  5
19B
330
1F
100
AcDbEntity
  8
0
  6
Continuous
 62
     7
100
AcDbLine
 10
23.7581211324
 20
278.260976161
 30
0.0
 11
23.7581211324
 21
280.260976161
 31
0.0
  0
LINE
  5
19C
330
1F
100
AcDbEntity
  8
0
  6
Continuous
 62
     7
100
AcDbLine
 10
18.7581211324
 20
280.260976161
 30
0.0
 11
18.7581211324
 21
278.260976161
 31
0.0
  0
LINE
  5
19D
330
1F
100
AcDbEntity
  8
0
  6
Continuous
 62
     7
100
AcDbLine
 10
82.1875393704
 20
269.0360132853
 30
0.0
 11
82.6374414791
 21
270.9847534149
 31
0.0
  0
LINE
  5
19E
330
1F
100
AcDbEntity
  8
0
  6
Continuous
 62
     7
100
AcDbLine
 10
45.5700005599
 20
243.9618489658
 30
0.0
 11
25.6795626525
 21
246.0524182312
 31
0.0
  0
LINE
  5
19F
330
1F
100
AcDbEntity
  8
0
  6
Continuous
 62
     7
100
AcDbLine
 10
44.0020735354
 20
229.0440201798
 30
0.0
 11
42.7477320517
 21
217.1097574274
 31
0.0
  0
LINE
  5
1A0
330
1F
100
AcDbEntity
  8
0
  6
Continuous
 62
     7
100
AcDbLine
 10
55.937081208
 20
208.1097574274
 30
0.0
 11
55.937081208
 21
205.6097574274
 31
0.0
  0
LINE
  5
1A1
330
1F
100
AcDbEntity
  8
0
  6
Continuous
 62
     7
100
AcDbLine
 10
25.0523918729
 20
240.085286859
 30
0.0
 11
44.9428297803
 21
237.9947175936
 31
0.0
  0
LINE
  5
1A2
330
1F
100
AcDbEntity
  8
0
  6
Continuous
 62
     7
100
AcDbLine
 10
55.937081208
 20
193.1097574274
 30
0.0
 11
43.937081208
 21
193.1097574274
 31
0.0
  0
LINE
  5
1A3
330
1F
100
AcDbEntity
  8
0
  6
Continuous
 62
     7
100
AcDbLine
 10
34.2748799801
 20
232.1779571702
 30
0.0
 11
34.7870694501
 21
237.0511144575
 31
0.0
  0
LINE
  5
1A4
330
1F
100
AcDbEntity
  8
0
  6
Continuous
 62
     7
100
AcDbLine
 10
9.2810525513
 20
234.8049142885
 30
0.0
 11
9.7932420214
 21
239.6780715758
 31
0.0
  0
LINE
  5
1A5
330
1F
100
AcDbEntity
  8
0
  6
Continuous
 62
     7
100
AcDbLine
 10
34.7870694501
 20
237.0511144575
 30
0.0
 11
20.7329828704
 21
238.5282584798
 31
0.0
  0
LINE
  5
1A6
330
1F
100
AcDbEntity
  8
0
  6
Continuous
 62
     7
100
AcDbLine
 10
11.8465043844
 20
230.5132413172
 30
0.0
 11
12.2646182374
 21
234.4913288987
 31
0.0
  0
LINE
  5
1A7
330
1F
100
AcDbEntity
  8
0
  6
Continuous
 62
     7
100
AcDbLine
 10
9.2810525513
 20
234.8049142885
 30
0.0
 11
12.2646182374
 21
234.4913288987
 31
0.0
  0
LINE
  5
1A8
330
1F
100
AcDbEntity
  8
0
  6
Continuous
 62
     7
100
AcDbLine
 10
20.2207934004
 20
233.6551011925
 30
0.0
 11
34.2748799801
 21
232.1779571702
 31
0.0
  0
LINE
  5
1A9
330
1F
100
AcDbEntity
  8
0
  6
Continuous
 62
     7
100
AcDbLine
 10
20.7329828704
 20
238.5282584798
 30
0.0
 11
21.1510967235
 21
242.5063460613
 31
0.0
  0
LINE
  5
1AA
330
1F
100
AcDbEntity
  8
0
  6
Continuous
 62
     7
100
AcDbLine
 10
19.8026795473
 20
229.6770136111
 30
0.0
 11
11.8465043844
 21
230.5132413172
 31
0.0
  0
LINE
  5
1AB
330
1F
100
AcDbEntity
  8
0
  6
Continuous
 62
     7
100
AcDbLine
 10
25.0523918729
 20
240.085286859
 30
0.0
 11
25.6795626525
 21
246.0524182312
 31
0.0
  0
LINE
  5
1AC
330
1F
100
AcDbEntity
  8
0
  6
Continuous
 62
     7
100
AcDbLine
 10
13.1949215605
 20
243.3425737675
 30
0.0
 11
12.7768077074
 21
239.364486186
 31
0.0
  0
LINE
  5
1AD
330
1F
100
AcDbEntity
  8
0
  6
Continuous
 62
     7
100
AcDbLine
 10
21.1510967235
 20
242.5063460613
 30
0.0
 11
13.1949215605
 21
243.3425737675
 31
0.0
  0
LINE
  5
1AE
330
1F
100
AcDbEntity
  8
0
  6
Continuous
 62
     7
100
AcDbLine
 10
12.7768077074
 20
239.364486186
 30
0.0
 11
9.7932420214
 21
239.6780715758
 31
0.0
  0
LINE
  5
1AF
330
1F
100
AcDbEntity
  8
0
  6
Continuous
 62
     7
100
AcDbLine
 10
19.8026795473
 20
229.6770136111
 30
0.0
 11
20.2207934004
 21
233.6551011925
 31
0.0
  0
LINE
  5
1B0
330
1F
100
AcDbEntity
  8
0
  6
Continuous
 62
     7
100
AcDbLine
 10
24.1116356267
 20
231.1345894323
 30
0.0
 11
44.0020735354
 21
229.0440201798
 31
0.0
  0
LINE
  5
1B1
330
1F
100
AcDbEntity
  8
0
  6
Continuous
 62
     7
100
AcDbLine
 10
22.8572940514
 20
219.2003264611
 30
0.0
 11
42.7477320517
 21
217.1097574274
 31
0.0
  0
LINE
  5
1B2
330
1F
100
AcDbEntity
  8
0
  6
Continuous
 62
     7
100
AcDbLine
 10
43.937081208
 20
193.1097574274
 30
0.0
 11
43.937081208
 21
195.6097574274
 31
0.0
  0
LINE
  5
1B3
330
1F
100
AcDbEntity
  8
0
  6
Continuous
 62
     7
100
AcDbLine
 10
39.937081208
 20
195.6097574274
 30
0.0
 11
39.937081208
 21
205.6097574274
 31
0.0
  0
LINE
  5
1B4
330
1F
100
AcDbEntity
  8
0
  6
Continuous
 62
     7
100
AcDbLine
 10
24.1116356267
 20
231.1345894323
 30
0.0
 11
22.8572940514
 21
219.2003264611
 31
0.0
  0
LINE
  5
1B5
330
1F
100
AcDbEntity
  8
0
  6
Continuous
 62
     7
100
AcDbLine
 10
30.9584402756
 20
184.1097720657
 30
0.0
 11
66.9584402756
 21
184.1097720657
 31
0.0
  0
LINE
  5
1B6
330
1F
100
AcDbEntity
  8
0
  6
Continuous
 62
     7
100
AcDbLine
 10
39.937081208
 20
195.6097574274
 30
0.0
 11
43.937081208
 21
195.6097574274
 31
0.0
  0
LINE
  5
1B7
330
1F
100
AcDbEntity
  8
0
  6
Continuous
 62
     7
100
AcDbLine
 10
43.937081208
 20
205.6097574274
 30
0.0
 11
43.937081208
 21
208.1097574274
 31
0.0
  0
LINE
  5
1B8
330
1F
100
AcDbEntity
  8
0
  6
Continuous
 62
     7
100
AcDbLine
 10
59.937081208
 20
195.6097574274
 30
0.0
 11
55.937081208
 21
195.6097574274
 31
0.0
  0
LINE
  5
1B9
330
1F
100
AcDbEntity
  8
0
  6
Continuous
 62
     7
100
AcDbLine
 10
59.937081208
 20
195.6097574274
 30
0.0
 11
59.937081208
 21
205.6097574274
 31
0.0
  0
LINE
  5
1BA
330
1F
100
AcDbEntity
  8
0
  6
Continuous
 62
     7
100
AcDbLine
 10
59.937081208
 20
205.6097574274
 30
0.0
 11
55.937081208
 21
205.6097574274
 31
0.0
  0
LINE
  5
1BB
330
1F
100
AcDbEntity
  8
0
  6
Continuous
 62
     7
100
AcDbLine
 10
55.937081208
 20
195.6097574274
 30
0.0
 11
55.937081208
 21
193.1097574274
 31
0.0
  0
LINE
  5
1BC
330
1F
100
AcDbEntity
  8
0
  6
Continuous
 62
     7
100
AcDbLine
 10
66.9584402756
 20
184.1097720657
 30
0.0
 11
66.9584402756
 21
190.1097720657
 31
0.0
  0
LINE
  5
1BD
330
1F
100
AcDbEntity
  8
0
  6
Continuous
 62
     7
100
AcDbLine
 10
127.6425222816
 20
287.114055879
 30
0.0
 11
127.6425222816
 21
285.114055879
 31
0.0
  0
LINE
  5
1BE
330
1F
100
AcDbEntity
  8
0
  6
Continuous
 62
     7
100
AcDbLine
 10
136.6425222816
 20
287.114055879
 30
0.0
 11
127.6425222816
 21
287.114055879
 31
0.0
  0
LINE
  5
1BF
330
1F
100
AcDbEntity
  8
0
  6
Continuous
 62
     7
100
AcDbLine
 10
119.6424606424
 20
190.6040708743
 30
0.0
 11
119.6424606424
 21
184.6040708742
 31
0.0
  0
LINE
  5
1C0
330
1F
100
AcDbEntity
  8
0
  6
Continuous
 62
     7
100
AcDbLine
 10
122.9589003469
 20
232.6722559788
 30
0.0
 11
123.4710898169
 21
237.5454132661
 31
0.0
  0
LINE
  5
1C1
330
1F
100
AcDbEntity
  8
0
  6
Continuous
 62
     7
100
AcDbLine
 10
127.6425222816
 20
285.114055879
 30
0.0
 11
136.6425222816
 21
285.114055879
 31
0.0
  0
LINE
  5
1C2
330
1F
100
AcDbEntity
  8
0
  6
Continuous
 62
     7
100
AcDbLine
 10
136.6425222816
 20
285.114055879
 30
0.0
 11
136.6425222816
 21
287.114055879
 31
0.0
  0
LINE
  5
1C3
330
1F
100
AcDbEntity
  8
0
  6
Continuous
 62
     7
100
AcDbLine
 10
97.9650729181
 20
235.299213097
 30
0.0
 11
98.4772623881
 21
240.1723703843
 31
0.0
  0
LINE
  5
1C4
330
1F
100
AcDbEntity
  8
0
  6
Continuous
 62
     7
100
AcDbLine
 10
142.9799194132
 20
271.7552749695
 30
0.0
 11
142.9799194132
 21
268.7552749695
 31
0.0
  0
LINE
  5
1C5
330
1F
100
AcDbEntity
  8
0
  6
Continuous
 62
     7
100
AcDbLine
 10
140.242522247
 20
291.1140562425
 30
0.0
 11
124.042522247
 21
291.1140562425
 31
0.0
  0
LINE
  5
1C6
330
1F
100
AcDbEntity
  8
0
  6
Continuous
 62
     7
100
AcDbLine
 10
140.9799194132
 20
271.7552749695
 30
0.0
 11
142.9799194132
 21
271.7552749695
 31
0.0
  0
LINE
  5
1C7
330
1F
100
AcDbEntity
  8
0
  6
Continuous
 62
     7
100
AcDbLine
 10
142.3854003835
 20
284.44506524
 30
0.0
 11
158.582933045
 21
284.162335885
 31
0.0
  0
LINE
  5
1C8
330
1F
100
AcDbEntity
  8
0
  6
Continuous
 62
     7
100
AcDbLine
 10
165.2684433176
 20
265.9256736412
 30
0.0
 11
170.2684433176
 21
265.9256736412
 31
0.0
  0
LINE
  5
1C9
330
1F
100
AcDbEntity
  8
0
  6
Continuous
 62
     7
100
AcDbLine
 10
101.9022321971
 20
290.6197574339
 30
0.0
 11
118.0997648587
 21
290.9024870208
 31
0.0
  0
LINE
  5
1CA
330
1F
100
AcDbEntity
  8
0
  6
Continuous
 62
     7
100
AcDbLine
 10
142.9799194132
 20
268.7552749695
 30
0.0
 11
140.9799194132
 21
268.7552749695
 31
0.0
  0
LINE
  5
1CB
330
1F
100
AcDbEntity
  8
0
  6
Continuous
 62
     7
100
AcDbLine
 10
114.7795386647
 20
271.7552749695
 30
0.0
 11
116.7795386647
 21
271.7552749695
 31
0.0
  0
LINE
  5
1CC
330
1F
100
AcDbEntity
  8
0
  6
Continuous
 62
     7
100
AcDbLine
 10
116.7795386647
 20
271.7552749695
 30
0.0
 11
116.7795386647
 21
268.7552749695
 31
0.0
  0
LINE
  5
1CD
330
1F
100
AcDbEntity
  8
0
  6
Continuous
 62
     7
100
AcDbLine
 10
116.7795386647
 20
268.7552749695
 30
0.0
 11
114.7795386647
 21
268.7552749695
 31
0.0
  0
LINE
  5
1CE
330
1F
100
AcDbEntity
  8
0
  6
Continuous
 62
     7
100
AcDbLine
 10
165.2684433176
 20
263.9256736412
 30
0.0
 11
170.2684433176
 21
263.9256736412
 31
0.0
  0
LINE
  5
1CF
330
1F
100
AcDbEntity
  8
0
  6
Continuous
 62
     7
100
AcDbLine
 10
170.2684433176
 20
263.9256736412
 30
0.0
 11
170.2684433176
 21
265.9256736412
 31
0.0
  0
LINE
  5
1D0
330
1F
100
AcDbEntity
  8
0
  6
Continuous
 62
     7
100
AcDbLine
 10
165.2684433176
 20
265.9256736412
 30
0.0
 11
165.2684433176
 21
263.9256736412
 31
0.0
  0
LINE
  5
1D1
330
1F
100
AcDbEntity
  8
0
  6
Continuous
 62
     7
100
AcDbLine
 10
105.3032076194
 20
286.6755207018
 30
0.0
 11
114.3018368758
 21
286.8325923598
 31
0.0
  0
LINE
  5
1D2
330
1F
100
AcDbEntity
  8
0
  6
Continuous
 62
     7
100
AcDbLine
 10
105.3032076194
 20
286.6755207018
 30
0.0
 11
105.3381124323
 21
284.6758253115
 31
0.0
  0
LINE
  5
1D3
330
1F
100
AcDbEntity
  8
0
  6
Continuous
 62
     7
100
AcDbLine
 10
110.6211015747
 20
212.4796974725
 30
0.0
 11
105.6211015747
 21
212.4796974725
 31
0.0
  0
LINE
  5
1D4
330
1F
100
AcDbEntity
  8
0
  6
Continuous
 62
     7
100
AcDbLine
 10
123.4710898169
 20
237.5454132661
 30
0.0
 11
109.4170032371
 21
239.0225572884
 31
0.0
  0
LINE
  5
1D5
330
1F
100
AcDbEntity
  8
0
  6
Continuous
 62
     7
100
AcDbLine
 10
105.3381124323
 20
284.6758253115
 30
0.0
 11
114.3367416887
 21
284.8328969695
 31
0.0
  0
LINE
  5
1D6
330
1F
100
AcDbEntity
  8
0
  6
Continuous
 62
     7
100
AcDbLine
 10
108.4866999141
 20
230.1713124196
 30
0.0
 11
100.5305247511
 21
231.0075401258
 31
0.0
  0
LINE
  5
1D7
330
1F
100
AcDbEntity
  8
0
  6
Continuous
 62
     7
100
AcDbLine
 10
100.5305247511
 20
231.0075401258
 30
0.0
 11
100.9486386042
 21
234.9856277072
 31
0.0
  0
LINE
  5
1D8
330
1F
100
AcDbEntity
  8
0
  6
Continuous
 62
     7
100
AcDbLine
 10
108.9048137671
 20
234.1494000011
 30
0.0
 11
122.9589003469
 21
232.6722559788
 31
0.0
  0
LINE
  5
1D9
330
1F
100
AcDbEntity
  8
0
  6
Continuous
 62
     7
100
AcDbLine
 10
114.3367416887
 20
284.8328969695
 30
0.0
 11
114.3018368758
 21
286.8325923598
 31
0.0
  0
LINE
  5
1DA
330
1F
100
AcDbEntity
  8
0
  6
Continuous
 62
     7
100
AcDbLine
 10
147.9841667149
 20
265.9256736412
 30
0.0
 11
152.9841667149
 21
265.9256736412
 31
0.0
  0
LINE
  5
1DB
330
1F
100
AcDbEntity
  8
0
  6
Continuous
 62
     7
100
AcDbLine
 10
147.9841667149
 20
263.9256736412
 30
0.0
 11
152.9841667149
 21
263.9256736412
 31
0.0
  0
LINE
  5
1DC
330
1F
100
AcDbEntity
  8
0
  6
Continuous
 62
     7
100
AcDbLine
 10
119.6424606424
 20
184.6040708742
 30
0.0
 11
155.6424606423
 21
184.6040708742
 31
0.0
  0
LINE
  5
1DD
330
1F
100
AcDbEntity
  8
0
  6
Continuous
 62
     7
100
AcDbLine
 10
152.9841667149
 20
263.9256736412
 30
0.0
 11
152.9841667149
 21
265.9256736412
 31
0.0
  0
LINE
  5
1DE
330
1F
100
AcDbEntity
  8
0
  6
Continuous
 62
     7
100
AcDbLine
 10
155.6424606423
 20
184.6040708742
 30
0.0
 11
155.6424606423
 21
190.6040708743
 31
0.0
  0
LINE
  5
1DF
330
1F
100
AcDbEntity
  8
0
  6
Continuous
 62
     7
100
AcDbLine
 10
147.9841667149
 20
265.9256736412
 30
0.0
 11
147.9841667149
 21
263.9256736412
 31
0.0
  0
LINE
  5
1E0
330
1F
100
AcDbEntity
  8
0
  6
Continuous
 62
     7
100
AcDbLine
 10
129.6425222476
 20
280.7552749695
 30
0.0
 11
134.6425222476
 21
280.7552749695
 31
0.0
  0
LINE
  5
1E1
330
1F
100
AcDbEntity
  8
0
  6
Continuous
 62
     7
100
AcDbLine
 10
145.9150424609
 20
280.3828457897
 30
0.0
 11
145.880137648
 21
278.3831503994
 31
0.0
  0
LINE
  5
1E2
330
1F
100
AcDbEntity
  8
0
  6
Continuous
 62
     7
100
AcDbLine
 10
145.880137648
 20
278.3831503994
 30
0.0
 11
154.8787669044
 21
278.2260787414
 31
0.0
  0
LINE
  5
1E3
330
1F
100
AcDbEntity
  8
0
  6
Continuous
 62
     7
100
AcDbLine
 10
140.6467695493
 20
256.9256736412
 30
0.0
 11
138.6467695493
 21
256.9256736412
 31
0.0
  0
LINE
  5
1E4
330
1F
100
AcDbEntity
  8
0
  6
Continuous
 62
     7
100
AcDbLine
 10
129.6425222476
 20
278.7552749695
 30
0.0
 11
134.6425222476
 21
278.7552749695
 31
0.0
  0
LINE
  5
1E5
330
1F
100
AcDbEntity
  8
0
  6
Continuous
 62
     7
100
AcDbLine
 10
154.9136717173
 20
280.2257741317
 30
0.0
 11
145.9150424609
 21
280.3828457897
 31
0.0
  0
LINE
  5
1E6
330
1F
100
AcDbEntity
  8
0
  6
Continuous
 62
     7
100
AcDbLine
 10
138.6467695493
 20
256.9256736412
 30
0.0
 11
138.6467695493
 21
253.9256736412
 31
0.0
  0
LINE
  5
1E7
330
1F
100
AcDbEntity
  8
0
  6
Continuous
 62
     7
100
AcDbLine
 10
154.8787669044
 20
278.2260787414
 30
0.0
 11
154.9136717173
 21
280.2257741317
 31
0.0
  0
LINE
  5
1E8
330
1F
100
AcDbEntity
  8
0
  6
Continuous
 62
     7
100
AcDbLine
 10
140.242522247
 20
291.1140562425
 30
0.0
 11
142.3854003835
 21
284.44506524
 31
0.0
  0
LINE
  5
1E9
330
1F
100
AcDbEntity
  8
0
  6
Continuous
 62
     7
100
AcDbLine
 10
134.6425222476
 20
278.7552749695
 30
0.0
 11
134.6425222476
 21
280.7552749695
 31
0.0
  0
LINE
  5
1EA
330
1F
100
AcDbEntity
  8
0
  6
Continuous
 62
     7
100
AcDbLine
 10
159.8454477856
 20
278.0880067096
 30
0.0
 11
175.6914389175
 21
274.7198373184
 31
0.0
  0
LINE
  5
1EB
330
1F
100
AcDbEntity
  8
0
  6
Continuous
 62
     7
100
AcDbLine
 10
129.6425222476
 20
280.7552749695
 30
0.0
 11
129.6425222476
 21
278.7552749695
 31
0.0
  0
LINE
  5
1EC
330
1F
100
AcDbEntity
  8
0
  6
Continuous
 62
     7
100
AcDbLine
 10
171.3214618458
 20
271.4790522235
 30
0.0
 11
162.5521312628
 21
273.5036117126
 31
0.0
  0
LINE
  5
1ED
330
1F
100
AcDbEntity
  8
0
  6
Continuous
 62
     7
100
AcDbLine
 10
138.6467695493
 20
253.9256736412
 30
0.0
 11
140.6467695493
 21
253.9256736412
 31
0.0
  0
LINE
  5
1EE
330
1F
100
AcDbEntity
  8
0
  6
Continuous
 62
     7
100
AcDbLine
 10
161.931046152
 20
253.9256736412
 30
0.0
 11
163.931046152
 21
253.9256736412
 31
0.0
  0
LINE
  5
1EF
330
1F
100
AcDbEntity
  8
0
  6
Continuous
 62
     7
100
AcDbLine
 10
161.931046152
 20
256.9256736412
 30
0.0
 11
161.931046152
 21
253.9256736412
 31
0.0
  0
LINE
  5
1F0
330
1F
100
AcDbEntity
  8
0
  6
Continuous
 62
     7
100
AcDbLine
 10
163.931046152
 20
256.9256736412
 30
0.0
 11
161.931046152
 21
256.9256736412
 31
0.0
  0
LINE
  5
1F1
330
1F
100
AcDbEntity
  8
0
  6
Continuous
 62
     7
100
AcDbLine
 10
109.8351170902
 20
243.0006448699
 30
0.0
 11
101.8789419273
 21
243.836872576
 31
0.0
  0
LINE
  5
1F2
330
1F
100
AcDbEntity
  8
0
  6
Continuous
 62
     7
100
AcDbLine
 10
162.5521312628
 20
273.5036117126
 30
0.0
 11
162.1022291541
 21
271.554871583
 31
0.0
  0
LINE
  5
1F3
330
1F
100
AcDbEntity
  8
0
  6
Continuous
 62
     7
100
AcDbLine
 10
107.4421414991
 20
280.7552749695
 30
0.0
 11
112.4421414991
 21
280.7552749695
 31
0.0
  0
LINE
  5
1F4
330
1F
100
AcDbEntity
  8
0
  6
Continuous
 62
     7
100
AcDbLine
 10
118.0997648587
 20
290.9024870208
 30
0.0
 11
124.042522247
 21
291.1140562425
 31
0.0
  0
LINE
  5
1F5
330
1F
100
AcDbEntity
  8
0
  6
Continuous
 62
     7
100
AcDbLine
 10
158.582933045
 20
284.162335885
 30
0.0
 11
159.8454477856
 21
278.0880067096
 31
0.0
  0
LINE
  5
1F6
330
1F
100
AcDbEntity
  8
0
  6
Continuous
 62
     7
100
AcDbLine
 10
107.4421414991
 20
278.7552749695
 30
0.0
 11
112.4421414991
 21
278.7552749695
 31
0.0
  0
LINE
  5
1F7
330
1F
100
AcDbEntity
  8
0
  6
Continuous
 62
     7
100
AcDbLine
 10
162.1022291541
 20
271.554871583
 30
0.0
 11
170.8715597371
 21
269.5303120939
 31
0.0
  0
LINE
  5
1F8
330
1F
100
AcDbEntity
  8
0
  6
Continuous
 62
     7
100
AcDbLine
 10
112.4421414991
 20
278.7552749695
 30
0.0
 11
112.4421414991
 21
280.7552749695
 31
0.0
  0
LINE
  5
1F9
330
1F
100
AcDbEntity
  8
0
  6
Continuous
 62
     7
100
AcDbLine
 10
107.4421414991
 20
280.7552749695
 30
0.0
 11
107.4421414991
 21
278.7552749695
 31
0.0
  0
LINE
  5
1FA
330
1F
100
AcDbEntity
  8
0
  6
Continuous
 62
     7
100
AcDbLine
 10
170.8715597371
 20
269.5303120939
 30
0.0
 11
171.3214618458
 21
271.4790522235
 31
0.0
  0
LINE
  5
1FB
330
1F
100
AcDbEntity
  8
0
  6
Continuous
 62
     7
100
AcDbLine
 10
97.9650729181
 20
235.299213097
 30
0.0
 11
100.9486386042
 21
234.9856277072
 31
0.0
  0
LINE
  5
1FC
330
1F
100
AcDbEntity
  8
0
  6
Continuous
 62
     7
100
AcDbLine
 10
128.6211015747
 20
206.104056236
 30
0.0
 11
132.6211015747
 21
206.104056236
 31
0.0
  0
LINE
  5
1FD
330
1F
100
AcDbEntity
  8
0
  6
Continuous
 62
     7
100
AcDbLine
 10
144.6211015747
 20
208.604056236
 30
0.0
 11
132.6211015747
 21
208.604056236
 31
0.0
  0
LINE
  5
1FE
330
1F
100
AcDbEntity
  8
0
  6
Continuous
 62
     7
100
AcDbLine
 10
144.6211015747
 20
208.604056236
 30
0.0
 11
144.6211015747
 21
206.104056236
 31
0.0
  0
LINE
  5
1FF
330
1F
100
AcDbEntity
  8
0
  6
Continuous
 62
     7
100
AcDbLine
 10
144.6211015747
 20
193.604056236
 30
0.0
 11
132.6211015747
 21
193.604056236
 31
0.0
  0
LINE
  5
200
330
1F
100
AcDbEntity
  8
0
  6
Continuous
 62
     7
100
AcDbLine
 10
101.8789419273
 20
243.836872576
 30
0.0
 11
101.4608280742
 21
239.8587849945
 31
0.0
  0
LINE
  5
201
330
1F
100
AcDbEntity
  8
0
  6
Continuous
 62
     7
100
AcDbLine
 10
109.4170032371
 20
239.0225572884
 30
0.0
 11
109.8351170902
 21
243.0006448699
 31
0.0
  0
LINE
  5
202
330
1F
100
AcDbEntity
  8
0
  6
Continuous
 62
     7
100
AcDbLine
 10
98.4772623881
 20
240.1723703843
 30
0.0
 11
101.4608280742
 21
239.8587849945
 31
0.0
  0
LINE
  5
203
330
1F
100
AcDbEntity
  8
0
  6
Continuous
 62
     7
100
AcDbLine
 10
108.4866999141
 20
230.1713124196
 30
0.0
 11
108.9048137671
 21
234.1494000011
 31
0.0
  0
LINE
  5
204
330
1F
100
AcDbEntity
  8
0
  6
Continuous
 62
     7
100
AcDbLine
 10
132.6211015747
 20
193.604056236
 30
0.0
 11
132.6211015747
 21
196.104056236
 31
0.0
  0
LINE
  5
205
330
1F
100
AcDbEntity
  8
0
  6
Continuous
 62
     7
100
AcDbLine
 10
128.6211015747
 20
196.104056236
 30
0.0
 11
128.6211015747
 21
206.104056236
 31
0.0
  0
LINE
  5
206
330
1F
100
AcDbEntity
  8
0
  6
Continuous
 62
     7
100
AcDbLine
 10
128.6211015747
 20
196.104056236
 30
0.0
 11
132.6211015747
 21
196.104056236
 31
0.0
  0
LINE
  5
207
330
1F
100
AcDbEntity
  8
0
  6
Continuous
 62
     7
100
AcDbLine
 10
132.6211015747
 20
206.104056236
 30
0.0
 11
132.6211015747
 21
208.604056236
 31
0.0
  0
LINE
  5
208
330
1F
100
AcDbEntity
  8
0
  6
Continuous
 62
     7
100
AcDbLine
 10
122.6211015747
 20
212.4796974725
 30
0.0
 11
122.6211015747
 21
206.4796974725
 31
0.0
  0
LINE
  5
209
330
1F
100
AcDbEntity
  8
0
  6
Continuous
 62
     7
100
AcDbLine
 10
122.6211015747
 20
206.4796974725
 30
0.0
 11
114.6211015747
 21
206.4796974725
 31
0.0
  0
LINE
  5
20A
330
1F
100
AcDbEntity
  8
0
  6
Continuous
 62
     7
100
AcDbLine
 10
122.6211015747
 20
212.4796974725
 30
0.0
 11
114.6211015747
 21
212.4796974725
 31
0.0
  0
LINE
  5
20B
330
1F
100
AcDbEntity
  8
0
  6
Continuous
 62
     7
100
AcDbLine
 10
114.6211015747
 20
212.4796974725
 30
0.0
 11
114.6211015747
 21
206.4796974725
 31
0.0
  0
LINE
  5
20C
330
1F
100
AcDbEntity
  8
0
  6
Continuous
 62
     7
100
AcDbLine
 10
148.6211015747
 20
196.104056236
 30
0.0
 11
144.6211015747
 21
196.104056236
 31
0.0
  0
LINE
  5
20D
330
1F
100
AcDbEntity
  8
0
  6
Continuous
 62
     7
100
AcDbLine
 10
148.6211015747
 20
196.104056236
 30
0.0
 11
148.6211015747
 21
206.104056236
 31
0.0
  0
LINE
  5
20E
330
1F
100
AcDbEntity
  8
0
  6
Continuous
 62
     7
100
AcDbLine
 10
148.6211015747
 20
206.104056236
 30
0.0
 11
144.6211015747
 21
206.104056236
 31
0.0
  0
LINE
  5
20F
330
1F
100
AcDbEntity
  8
0
  6
Continuous
 62
     7
100
AcDbLine
 10
144.6211015747
 20
196.104056236
 30
0.0
 11
144.6211015747
 21
193.604056236
 31
0.0
  0
LINE
  5
210
330
1F
100
AcDbEntity
  8
0
  6
Continuous
 62
     7
100
AcDbLine
 10
135.0844815898
 20
229.6303426066
 30
0.0
 11
133.5844815898
 21
232.228418818
 31
0.0
  0
LINE
  5
211
330
1F
100
AcDbEntity
  8
0
  6
Continuous
 62
     7
100
AcDbLine
 10
133.5844815898
 20
232.228418818
 30
0.0
 11
130.5844815898
 21
232.228418818
 31
0.0
  0
LINE
  5
212
330
1F
100
AcDbEntity
  8
0
  6
Continuous
 62
     7
100
AcDbLine
 10
130.5844815898
 20
232.228418818
 30
0.0
 11
129.0844815898
 21
229.6303426066
 31
0.0
  0
LINE
  5
213
330
1F
100
AcDbEntity
  8
0
  6
Continuous
 62
     7
100
AcDbLine
 10
129.0844815898
 20
229.6303426066
 30
0.0
 11
130.5844815898
 21
227.0322663953
 31
0.0
  0
LINE
  5
214
330
1F
100
AcDbEntity
  8
0
  6
Continuous
 62
     7
100
AcDbLine
 10
110.6211015747
 20
212.4796974725
 30
0.0
 11
110.6211015747
 21
206.4796974725
 31
0.0
  0
LINE
  5
215
330
1F
100
AcDbEntity
  8
0
  6
Continuous
 62
     7
100
AcDbLine
 10
105.6211015747
 20
212.4796974725
 30
0.0
 11
105.6211015747
 21
206.4796974725
 31
0.0
  0
LINE
  5
216
330
1F
100
AcDbEntity
  8
0
  6
Continuous
 62
     7
100
AcDbLine
 10
122.5667664998
 20
250.4796513428
 30
0.0
 11
114.5667664998
 21
250.4796513428
 31
0.0
  0
LINE
  5
217
330
1F
100
AcDbEntity
  8
0
  6
Continuous
 62
     7
100
AcDbLine
 10
110.5667664998
 20
250.4796513428
 30
0.0
 11
105.5667664998
 21
250.4796513428
 31
0.0
  0
LINE
  5
218
330
1F
100
AcDbEntity
  8
0
  6
Continuous
 62
     7
100
AcDbLine
 10
105.5667664998
 20
250.4796513428
 30
0.0
 11
105.5667664998
 21
244.4796513428
 31
0.0
  0
LINE
  5
219
330
1F
100
AcDbEntity
  8
0
  6
Continuous
 62
     7
100
AcDbLine
 10
114.5667664998
 20
250.4796513428
 30
0.0
 11
114.5667664998
 21
244.4796513428
 31
0.0
  0
LINE
  5
21A
330
1F
100
AcDbEntity
  8
0
  6
Continuous
 62
     7
100
AcDbLine
 10
105.6211015747
 20
206.4796974725
 30
0.0
 11
110.6211015747
 21
206.4796974725
 31
0.0
  0
LINE
  5
21B
330
1F
100
AcDbEntity
  8
0
  6
Continuous
 62
     7
100
AcDbLine
 10
122.5667664998
 20
250.4796513428
 30
0.0
 11
122.5667664998
 21
244.4796513428
 31
0.0
  0
LINE
  5
21C
330
1F
100
AcDbEntity
  8
0
  6
Continuous
 62
     7
100
AcDbLine
 10
122.5667664998
 20
244.4796513428
 30
0.0
 11
114.5667664998
 21
244.4796513428
 31
0.0
  0
LINE
  5
21D
330
1F
100
AcDbEntity
  8
0
  6
Continuous
 62
     7
100
AcDbLine
 10
105.5667664998
 20
244.4796513428
 30
0.0
 11
110.5667664998
 21
244.4796513428
 31
0.0
  0
LINE
  5
21E
330
1F
100
AcDbEntity
  8
0
  6
Continuous
 62
     7
100
AcDbLine
 10
110.5667664998
 20
250.4796513428
 30
0.0
 11
110.5667664998
 21
244.4796513428
 31
0.0
  0
LINE
  5
21F
330
1F
100
AcDbEntity
  8
0
  6
Continuous
 62
     7
100
AcDbLine
 10
130.5844815898
 20
227.0322663953
 30
0.0
 11
133.5844815898
 21
227.0322663953
 31
0.0
  0
LINE
  5
220
330
1F
100
AcDbEntity
  8
0
  6
Continuous
 62
     7
100
AcDbLine
 10
133.5844815898
 20
227.0322663953
 30
0.0
 11
135.0844815898
 21
229.6303426066
 31
0.0
  0
LINE
  5
221
330
1F
100
AcDbEntity
  8
0
  6
Continuous
 62
     7
100
AcDbLine
 10
133.5844815898
 20
219.3210620505
 30
0.0
 11
133.5844815898
 21
215.3210620505
 31
0.0
  0
LINE
  5
222
330
1F
100
AcDbEntity
  8
0
  6
Continuous
 62
     7
100
AcDbLine
 10
133.5844815898
 20
215.3210620505
 30
0.0
 11
127.5844815898
 21
215.3210620505
 31
0.0
  0
LINE
  5
223
330
1F
100
AcDbEntity
  8
0
  6
Continuous
 62
     7
100
AcDbLine
 10
127.5844815898
 20
215.3210620505
 30
0.0
 11
127.5844815898
 21
219.3210620505
 31
0.0
  0
LINE
  5
224
330
1F
100
AcDbEntity
  8
0
  6
Continuous
 62
     7
100
AcDbLine
 10
127.5844815898
 20
219.3210620505
 30
0.0
 11
133.5844815898
 21
219.3210620505
 31
0.0
  0
LINE
  5
225
330
1F
100
AcDbEntity
  8
0
  6
Continuous
 62
     7
100
AcDbLine
 10
127.5844815898
 20
239.9396231628
 30
0.0
 11
133.5844815898
 21
239.9396231628
 31
0.0
  0
LINE
  5
226
330
1F
100
AcDbEntity
  8
0
  6
Continuous
 62
     7
100
AcDbLine
 10
127.5844815898
 20
243.9396231628
 30
0.0
 11
127.5844815898
 21
239.9396231628
 31
0.0
  0
LINE
  5
227
330
1F
100
AcDbEntity
  8
0
  6
Continuous
 62
     7
100
AcDbLine
 10
133.5844815898
 20
243.9396231628
 30
0.0
 11
127.5844815898
 21
243.9396231628
 31
0.0
  0
LINE
  5
228
330
1F
100
AcDbEntity
  8
0
  6
Continuous
 62
     7
100
AcDbLine
 10
133.5844815898
 20
239.9396231628
 30
0.0
 11
133.5844815898
 21
243.9396231628
 31
0.0
  0
LINE
  5
229
330
1F
100
AcDbEntity
  8
0
  6
Continuous
 62
     7
100
AcDbLine
 10
120.6211015747
 20
132.4395502878
 30
0.0
 11
130.6211015747
 21
132.4395502878
 31
0.0
  0
LINE
  5
22A
330
1F
100
AcDbEntity
  8
0
  6
Continuous
 62
     7
100
AcDbLine
 10
120.6211015747
 20
132.4395502878
 30
0.0
 11
120.6211015747
 21
136.4395502878
 31
0.0
  0
LINE
  5
22B
330
1F
100
AcDbEntity
  8
0
  6
Continuous
 62
     7
100
AcDbLine
 10
120.6211015747
 20
136.4395502878
 30
0.0
 11
116.6211015747
 21
136.4395502878
 31
0.0
  0
LINE
  5
22C
330
1F
100
AcDbEntity
  8
0
  6
Continuous
 62
     7
100
AcDbLine
 10
124.1211015747
 20
149.8414740765
 30
0.0
 11
127.1211015747
 21
149.8414740765
 31
0.0
  0
LINE
  5
22D
330
1F
100
AcDbEntity
  8
0
  6
Continuous
 62
     7
100
AcDbLine
 10
116.6211015747
 20
136.4395502878
 30
0.0
 11
116.6211015747
 21
140.4395502878
 31
0.0
  0
LINE
  5
22E
330
1F
100
AcDbEntity
  8
0
  6
Continuous
 62
     7
100
AcDbLine
 10
116.6211015747
 20
140.4395502878
 30
0.0
 11
120.6211015747
 21
140.4395502878
 31
0.0
  0
LINE
  5
22F
330
1F
100
AcDbEntity
  8
0
  6
Continuous
 62
     7
100
AcDbLine
 10
120.6211015747
 20
140.4395502878
 30
0.0
 11
120.6211015747
 21
154.4395502878
 31
0.0
  0
LINE
  5
230
330
1F
100
AcDbEntity
  8
0
  6
Continuous
 62
     7
100
AcDbLine
 10
130.6211015747
 20
140.4395502878
 30
0.0
 11
130.6211015747
 21
154.4395502878
 31
0.0
  0
LINE
  5
231
330
1F
100
AcDbEntity
  8
0
  6
Continuous
 62
     7
100
AcDbLine
 10
130.6211015747
 20
132.4395502878
 30
0.0
 11
130.6211015747
 21
136.4395502878
 31
0.0
  0
LINE
  5
232
330
1F
100
AcDbEntity
  8
0
  6
Continuous
 62
     7
100
AcDbLine
 10
134.6211015747
 20
140.4395502878
 30
0.0
 11
130.6211015747
 21
140.4395502878
 31
0.0
  0
LINE
  5
233
330
1F
100
AcDbEntity
  8
0
  6
Continuous
 62
     7
100
AcDbLine
 10
134.6211015747
 20
136.4395502878
 30
0.0
 11
134.6211015747
 21
140.4395502878
 31
0.0
  0
LINE
  5
234
330
1F
100
AcDbEntity
  8
0
  6
Continuous
 62
     7
100
AcDbLine
 10
130.6211015747
 20
136.4395502878
 30
0.0
 11
134.6211015747
 21
136.4395502878
 31
0.0
  0
LINE
  5
235
330
1F
100
AcDbEntity
  8
0
  6
Continuous
 62
     7
100
AcDbLine
 10
124.1211015747
 20
155.0376264992
 30
0.0
 11
122.6211015747
 21
152.4395502878
 31
0.0
  0
LINE
  5
236
330
1F
100
AcDbEntity
  8
0
  6
Continuous
 62
     7
100
AcDbLine
 10
128.6211015747
 20
142.9395502878
 30
0.0
 11
127.1211015747
 21
145.5376264992
 31
0.0
  0
LINE
  5
237
330
1F
100
AcDbEntity
  8
0
  6
Continuous
 62
     7
100
AcDbLine
 10
127.1211015747
 20
145.5376264992
 30
0.0
 11
124.1211015747
 21
145.5376264992
 31
0.0
  0
LINE
  5
238
330
1F
100
AcDbEntity
  8
0
  6
Continuous
 62
     7
100
AcDbLine
 10
124.1211015747
 20
145.5376264992
 30
0.0
 11
122.6211015747
 21
142.9395502878
 31
0.0
  0
LINE
  5
239
330
1F
100
AcDbEntity
  8
0
  6
Continuous
 62
     7
100
AcDbLine
 10
122.6211015747
 20
142.9395502878
 30
0.0
 11
124.1211015747
 21
140.3414740765
 31
0.0
  0
LINE
  5
23A
330
1F
100
AcDbEntity
  8
0
  6
Continuous
 62
     7
100
AcDbLine
 10
124.1211015747
 20
140.3414740765
 30
0.0
 11
127.1211015747
 21
140.3414740765
 31
0.0
  0
LINE
  5
23B
330
1F
100
AcDbEntity
  8
0
  6
Continuous
 62
     7
100
AcDbLine
 10
127.1211015747
 20
140.3414740765
 30
0.0
 11
128.6211015747
 21
142.9395502878
 31
0.0
  0
LINE
  5
23C
330
1F
100
AcDbEntity
  8
0
  6
Continuous
 62
     7
100
AcDbLine
 10
122.6211015747
 20
152.4395502878
 30
0.0
 11
124.1211015747
 21
149.8414740765
 31
0.0
  0
LINE
  5
23D
330
1F
100
AcDbEntity
  8
0
  6
Continuous
 62
     7
100
AcDbLine
 10
127.1211015747
 20
149.8414740765
 30
0.0
 11
128.6211015747
 21
152.4395502878
 31
0.0
  0
LINE
  5
23E
330
1F
100
AcDbEntity
  8
0
  6
Continuous
 62
     7
100
AcDbLine
 10
128.6211015747
 20
152.4395502878
 30
0.0
 11
127.1211015747
 21
155.0376264992
 31
0.0
  0
LINE
  5
23F
330
1F
100
AcDbEntity
  8
0
  6
Continuous
 62
     7
100
AcDbLine
 10
127.1211015747
 20
155.0376264992
 30
0.0
 11
124.1211015747
 21
155.0376264992
 31
0.0
  0
LINE
  5
240
330
1F
100
AcDbEntity
  8
0
  6
Continuous
 62
     7
100
AcDbLine
 10
46.9428297803
 20
195.3641237673
 30
0.0
 11
52.9428297803
 21
195.3641237673
 31
0.0
  0
LINE
  5
241
330
1F
100
AcDbEntity
  8
0
  6
Continuous
 62
     7
100
AcDbLine
 10
46.9428297803
 20
195.3641237673
 30
0.0
 11
46.9428297803
 21
199.3641237673
 31
0.0
  0
LINE
  5
242
330
1F
100
AcDbEntity
  8
0
  6
Continuous
 62
     7
100
AcDbLine
 10
52.9428297803
 20
199.3641237673
 30
0.0
 11
54.9428297803
 21
199.3641237673
 31
0.0
  0
LINE
  5
243
330
1F
100
AcDbEntity
  8
0
  6
Continuous
 62
     7
100
AcDbLine
 10
44.9428297803
 20
203.3641237673
 30
0.0
 11
52.4428297803
 21
203.3641237673
 31
0.0
  0
LINE
  5
244
330
1F
100
AcDbEntity
  8
0
  6
Continuous
 62
     7
100
AcDbLine
 10
52.4428297803
 20
203.3641237673
 30
0.0
 11
52.4428297803
 21
205.3641237673
 31
0.0
  0
LINE
  5
245
330
1F
100
AcDbEntity
  8
0
  6
Continuous
 62
     7
100
AcDbLine
 10
52.4428297803
 20
205.3641237673
 30
0.0
 11
54.9428297803
 21
205.3641237673
 31
0.0
  0
LINE
  5
246
330
1F
100
AcDbEntity
  8
0
  6
Continuous
 62
     7
100
AcDbLine
 10
54.9428297803
 20
205.3641237673
 30
0.0
 11
54.9428297803
 21
199.3641237673
 31
0.0
  0
LINE
  5
247
330
1F
100
AcDbEntity
  8
0
  6
Continuous
 62
     7
100
AcDbLine
 10
46.9428297803
 20
199.3641237673
 30
0.0
 11
44.9428297803
 21
199.3641237673
 31
0.0
  0
LINE
  5
248
330
1F
100
AcDbEntity
  8
0
  6
Continuous
 62
     7
100
AcDbLine
 10
44.9428297803
 20
199.3641237673
 30
0.0
 11
44.9428297803
 21
203.3641237673
 31
0.0
  0
LINE
  5
249
330
1F
100
AcDbEntity
  8
0
  6
Continuous
 62
     7
100
AcDbLine
 10
140.6211015747
 20
200.4796974725
 30
0.0
 11
142.6211015747
 21
200.4796974725
 31
0.0
  0
LINE
  5
24A
330
1F
100
AcDbEntity
  8
0
  6
Continuous
 62
     7
100
AcDbLine
 10
142.6211015747
 20
206.4796974725
 30
0.0
 11
142.6211015747
 21
200.4796974725
 31
0.0
  0
LINE
  5
24B
330
1F
100
AcDbEntity
  8
0
  6
Continuous
 62
     7
100
AcDbLine
 10
132.6211015747
 20
204.4796974725
 30
0.0
 11
140.1211015747
 21
204.4796974725
 31
0.0
  0
LINE
  5
24C
330
1F
100
AcDbEntity
  8
0
  6
Continuous
 62
     7
100
AcDbLine
 10
134.6211015747
 20
196.4796974725
 30
0.0
 11
134.6211015747
 21
200.4796974725
 31
0.0
  0
LINE
  5
24D
330
1F
100
AcDbEntity
  8
0
  6
Continuous
 62
     7
100
AcDbLine
 10
134.6211015747
 20
200.4796974725
 30
0.0
 11
132.6211015747
 21
200.4796974725
 31
0.0
  0
LINE
  5
24E
330
1F
100
AcDbEntity
  8
0
  6
Continuous
 62
     7
100
AcDbLine
 10
140.1211015747
 20
206.4796974725
 30
0.0
 11
142.6211015747
 21
206.4796974725
 31
0.0
  0
LINE
  5
24F
330
1F
100
AcDbEntity
  8
0
  6
Continuous
 62
     7
100
AcDbLine
 10
134.6211015747
 20
196.4796974725
 30
0.0
 11
140.6211015747
 21
196.4796974725
 31
0.0
  0
LINE
  5
250
330
1F
100
AcDbEntity
  8
0
  6
Continuous
 62
     7
100
AcDbLine
 10
132.6211015747
 20
200.4796974725
 30
0.0
 11
132.6211015747
 21
204.4796974725
 31
0.0
  0
LINE
  5
251
330
1F
100
AcDbEntity
  8
0
  6
Continuous
 62
     7
100
AcDbLine
 10
140.1211015747
 20
204.4796974725
 30
0.0
 11
140.1211015747
 21
206.4796974725
 31
0.0
  0
LINE
  5
252
330
1F
100
AcDbEntity
  8
0
  6
Continuous
 62
     7
100
AcDbLine
 10
87.0074185507
 20
184.4796974725
 30
0.0
 11
87.0074185507
 21
188.4796974725
 31
0.0
  0
LINE
  5
253
330
1F
100
AcDbEntity
  8
0
  6
Continuous
 62
     7
100
AcDbLine
 10
97.0074185507
 20
188.4796974725
 30
0.0
 11
101.0074185507
 21
188.4796974725
 31
0.0
  0
LINE
  5
254
330
1F
100
AcDbEntity
  8
0
  6
Continuous
 62
     7
100
AcDbLine
 10
95.0074185507
 20
194.9796974725
 30
0.0
 11
93.5074185507
 21
197.5777736838
 31
0.0
  0
LINE
  5
255
330
1F
100
AcDbEntity
  8
0
  6
Continuous
 62
     7
100
AcDbLine
 10
90.5074185507
 20
192.3816212611
 30
0.0
 11
93.5074185507
 21
192.3816212611
 31
0.0
  0
LINE
  5
256
330
1F
100
AcDbEntity
  8
0
  6
Continuous
 62
     7
100
AcDbLine
 10
101.0074185507
 20
192.4796974725
 30
0.0
 11
97.0074185507
 21
192.4796974725
 31
0.0
  0
LINE
  5
257
330
1F
100
AcDbEntity
  8
0
  6
Continuous
 62
     7
100
AcDbLine
 10
87.0074185507
 20
188.4796974725
 30
0.0
 11
83.0074185507
 21
188.4796974725
 31
0.0
  0
LINE
  5
258
330
1F
100
AcDbEntity
  8
0
  6
Continuous
 62
     7
100
AcDbLine
 10
83.0074185507
 20
192.4796974725
 30
0.0
 11
87.0074185507
 21
192.4796974725
 31
0.0
  0
LINE
  5
259
330
1F
100
AcDbEntity
  8
0
  6
Continuous
 62
     7
100
AcDbLine
 10
93.5074185507
 20
192.3816212611
 30
0.0
 11
95.0074185507
 21
194.9796974725
 31
0.0
  0
LINE
  5
25A
330
1F
100
AcDbEntity
  8
0
  6
Continuous
 62
     7
100
AcDbLine
 10
90.5074185507
 20
201.8816212611
 30
0.0
 11
93.5074185507
 21
201.8816212611
 31
0.0
  0
LINE
  5
25B
330
1F
100
AcDbEntity
  8
0
  6
Continuous
 62
     7
100
AcDbLine
 10
93.5074185507
 20
207.0777736838
 30
0.0
 11
90.5074185507
 21
207.0777736838
 31
0.0
  0
LINE
  5
25C
330
1F
100
AcDbEntity
  8
0
  6
Continuous
 62
     7
100
AcDbLine
 10
93.5074185507
 20
197.5777736838
 30
0.0
 11
90.5074185507
 21
197.5777736838
 31
0.0
  0
LINE
  5
25D
330
1F
100
AcDbEntity
  8
0
  6
Continuous
 62
     7
100
AcDbLine
 10
87.0074185507
 20
192.4796974725
 30
0.0
 11
87.0074185507
 21
206.4796974725
 31
0.0
  0
LINE
  5
25E
330
1F
100
AcDbEntity
  8
0
  6
Continuous
 62
     7
100
AcDbLine
 10
89.0074185507
 20
204.4796974725
 30
0.0
 11
90.5074185507
 21
201.8816212611
 31
0.0
  0
LINE
  5
25F
330
1F
100
AcDbEntity
  8
0
  6
Continuous
 62
     7
100
AcDbLine
 10
97.0074185507
 20
192.4796974725
 30
0.0
 11
97.0074185507
 21
206.4796974725
 31
0.0
  0
LINE
  5
260
330
1F
100
AcDbEntity
  8
0
  6
Continuous
 62
     7
100
AcDbLine
 10
90.5074185507
 20
197.5777736838
 30
0.0
 11
89.0074185507
 21
194.9796974725
 31
0.0
  0
LINE
  5
261
330
1F
100
AcDbEntity
  8
0
  6
Continuous
 62
     7
100
AcDbLine
 10
83.0074185507
 20
188.4796974725
 30
0.0
 11
83.0074185507
 21
192.4796974725
 31
0.0
  0
LINE
  5
262
330
1F
100
AcDbEntity
  8
0
  6
Continuous
 62
     7
100
AcDbLine
 10
97.0074185507
 20
184.4796974725
 30
0.0
 11
97.0074185507
 21
188.4796974725
 31
0.0
  0
LINE
  5
263
330
1F
100
AcDbEntity
  8
0
  6
Continuous
 62
     7
100
AcDbLine
 10
90.5074185507
 20
207.0777736838
 30
0.0
 11
89.0074185507
 21
204.4796974725
 31
0.0
  0
LINE
  5
264
330
1F
100
AcDbEntity
  8
0
  6
Continuous
 62
     7
100
AcDbLine
 10
95.0074185507
 20
204.4796974725
 30
0.0
 11
93.5074185507
 21
207.0777736838
 31
0.0
  0
LINE
  5
265
330
1F
100
AcDbEntity
  8
0
  6
Continuous
 62
     7
100
AcDbLine
 10
87.0074185507
 20
184.4796974725
 30
0.0
 11
97.0074185507
 21
184.4796974725
 31
0.0
  0
LINE
  5
266
330
1F
100
AcDbEntity
  8
0
  6
Continuous
 62
     7
100
AcDbLine
 10
93.5074185507
 20
201.8816212611
 30
0.0
 11
95.0074185507
 21
204.4796974725
 31
0.0
  0
LINE
  5
267
330
1F
100
AcDbEntity
  8
0
  6
Continuous
 62
     7
100
AcDbLine
 10
101.0074185507
 20
188.4796974725
 30
0.0
 11
101.0074185507
 21
192.4796974725
 31
0.0
  0
LINE
  5
268
330
1F
100
AcDbEntity
  8
0
  6
Continuous
 62
     7
100
AcDbLine
 10
89.0074185507
 20
194.9796974725
 30
0.0
 11
90.5074185507
 21
192.3816212611
 31
0.0
  0
LINE
  5
269
330
1F
100
AcDbEntity
  8
0
  6
Continuous
 62
     7
100
AcDbLine
 10
14.2260285322
 20
183.958298881
 30
0.0
 11
18.2260285322
 21
183.958298881
 31
0.0
  0
LINE
  5
26A
330
1F
100
AcDbEntity
  8
0
  6
Continuous
 62
     7
100
AcDbLine
 10
9.8370846494
 20
175.058298881
 30
0.0
 11
9.8370846494
 21
177.058298881
 31
0.0
  0
LINE
  5
26B
330
1F
100
AcDbEntity
  8
0
  6
Continuous
 62
     7
100
AcDbLine
 10
9.8370846494
 20
177.058298881
 30
0.0
 11
13.8370846494
 21
177.058298881
 31
0.0
  0
LINE
  5
26C
330
1F
100
AcDbEntity
  8
0
  6
Continuous
 62
     7
100
AcDbLine
 10
8.9260285322
 20
187.958298881
 30
0.0
 11
10.4260285322
 21
185.3602226696
 31
0.0
  0
LINE
  5
26D
330
1F
100
AcDbEntity
  8
0
  6
Continuous
 62
     7
100
AcDbLine
 10
10.4260285322
 20
185.3602226696
 30
0.0
 11
13.4260285322
 21
185.3602226696
 31
0.0
  0
LINE
  5
26E
330
1F
100
AcDbEntity
  8
0
  6
Continuous
 62
     7
100
AcDbLine
 10
13.4260285322
 20
185.3602226696
 30
0.0
 11
14.9260285322
 21
187.958298881
 31
0.0
  0
LINE
  5
26F
330
1F
100
AcDbEntity
  8
0
  6
Continuous
 62
     7
100
AcDbLine
 10
14.9260285322
 20
187.958298881
 30
0.0
 11
13.4260285322
 21
190.5563750923
 31
0.0
  0
LINE
  5
270
330
1F
100
AcDbEntity
  8
0
  6
Continuous
 62
     7
100
AcDbLine
 10
13.4260285322
 20
190.5563750923
 30
0.0
 11
10.4260285322
 21
190.5563750923
 31
0.0
  0
LINE
  5
271
330
1F
100
AcDbEntity
  8
0
  6
Continuous
 62
     7
100
AcDbLine
 10
10.4260285322
 20
190.5563750923
 30
0.0
 11
8.9260285322
 21
187.958298881
 31
0.0
  0
LINE
  5
272
330
1F
100
AcDbEntity
  8
0
  6
Continuous
 62
     7
100
AcDbLine
 10
96.002990617
 20
166.4020198054
 30
0.0
 11
97.002990617
 21
168.134070613
 31
0.0
  0
LINE
  5
273
330
1F
100
AcDbEntity
  8
0
  6
Continuous
 62
     7
100
AcDbLine
 10
85.0274185507
 20
171.3930978854
 30
0.0
 11
89.0274185507
 21
171.3930978854
 31
0.0
  0
LINE
  5
274
330
1F
100
AcDbEntity
  8
0
  6
Continuous
 62
     7
100
AcDbLine
 10
88.638474668
 20
162.4930978854
 30
0.0
 11
88.638474668
 21
164.4930978854
 31
0.0
  0
LINE
  5
275
330
1F
100
AcDbEntity
  8
0
  6
Continuous
 62
     7
100
AcDbLine
 10
92.2274185507
 20
172.795021674
 30
0.0
 11
93.7274185507
 21
175.3930978854
 31
0.0
  0
LINE
  5
276
330
1F
100
AcDbEntity
  8
0
  6
Continuous
 62
     7
100
AcDbLine
 10
83.0074185507
 20
177.5445710702
 30
0.0
 11
83.0074185507
 21
162.4020198054
 31
0.0
  0
LINE
  5
277
330
1F
100
AcDbEntity
  8
0
  6
Continuous
 62
     7
100
AcDbLine
 10
87.7274185507
 20
175.3930978854
 30
0.0
 11
89.2274185507
 21
172.795021674
 31
0.0
  0
LINE
  5
278
330
1F
100
AcDbEntity
  8
0
  6
Continuous
 62
     7
100
AcDbLine
 10
89.2274185507
 20
172.795021674
 30
0.0
 11
92.2274185507
 21
172.795021674
 31
0.0
  0
LINE
  5
279
330
1F
100
AcDbEntity
  8
0
  6
Continuous
 62
     7
100
AcDbLine
 10
92.638474668
 20
162.4930978854
 30
0.0
 11
92.638474668
 21
164.4930978854
 31
0.0
  0
LINE
  5
27A
330
1F
100
AcDbEntity
  8
0
  6
Continuous
 62
     7
100
AcDbLine
 10
93.0274185507
 20
171.3930978854
 30
0.0
 11
97.0274185507
 21
171.3930978854
 31
0.0
  0
LINE
  5
27B
330
1F
100
AcDbEntity
  8
0
  6
Continuous
 62
     7
100
AcDbLine
 10
92.2274185507
 20
177.9911740967
 30
0.0
 11
89.2274185507
 21
177.9911740967
 31
0.0
  0
LINE
  5
27C
330
1F
100
AcDbEntity
  8
0
  6
Continuous
 62
     7
100
AcDbLine
 10
99.4670922321
 20
173.5445710702
 30
0.0
 11
99.4670922321
 21
166.7114208822
 31
0.0
  0
LINE
  5
27D
330
1F
100
AcDbEntity
  8
0
  6
Continuous
 62
     7
100
AcDbLine
 10
97.002990617
 20
168.134070613
 30
0.0
 11
99.4670922321
 21
166.7114208822
 31
0.0
  0
LINE
  5
27E
330
1F
100
AcDbEntity
  8
0
  6
Continuous
 62
     7
100
AcDbLine
 10
93.0274185507
 20
169.3930978854
 30
0.0
 11
93.0274185507
 21
171.3930978854
 31
0.0
  0
LINE
  5
27F
330
1F
100
AcDbEntity
  8
0
  6
Continuous
 62
     7
100
AcDbLine
 10
93.7274185507
 20
175.3930978854
 30
0.0
 11
92.2274185507
 21
177.9911740967
 31
0.0
  0
LINE
  5
280
330
1F
100
AcDbEntity
  8
0
  6
Continuous
 62
     7
100
AcDbLine
 10
88.638474668
 20
164.4930978854
 30
0.0
 11
92.638474668
 21
164.4930978854
 31
0.0
  0
LINE
  5
281
330
1F
100
AcDbEntity
  8
0
  6
Continuous
 62
     7
100
AcDbLine
 10
85.9877448694
 20
177.5445710702
 30
0.0
 11
83.0074185507
 21
177.5445710702
 31
0.0
  0
LINE
  5
282
330
1F
100
AcDbEntity
  8
0
  6
Continuous
 62
     7
100
AcDbLine
 10
89.0274185507
 20
169.3930978854
 30
0.0
 11
89.0274185507
 21
171.3930978854
 31
0.0
  0
LINE
  5
283
330
1F
100
AcDbEntity
  8
0
  6
Continuous
 62
     7
100
AcDbLine
 10
96.002990617
 20
166.4020198054
 30
0.0
 11
98.4670922321
 21
164.9793700746
 31
0.0
  0
LINE
  5
284
330
1F
100
AcDbEntity
  8
0
  6
Continuous
 62
     7
100
AcDbLine
 10
97.0274185507
 20
169.3930978854
 30
0.0
 11
97.0274185507
 21
171.3930978854
 31
0.0
  0
LINE
  5
285
330
1F
100
AcDbEntity
  8
0
  6
Continuous
 62
     7
100
AcDbLine
 10
98.4670922321
 20
164.9793700746
 30
0.0
 11
98.4670922321
 21
161.9240299076
 31
0.0
  0
LINE
  5
286
330
1F
100
AcDbEntity
  8
0
  6
Continuous
 62
     7
100
AcDbLine
 10
89.2274185507
 20
177.9911740967
 30
0.0
 11
87.7274185507
 21
175.3930978854
 31
0.0
  0
LINE
  5
287
330
1F
100
AcDbEntity
  8
0
  6
Continuous
 62
     7
100
AcDbLine
 10
85.0274185507
 20
169.3930978854
 30
0.0
 11
85.0274185507
 21
171.3930978854
 31
0.0
  0
ENDSEC
  0
SECTION
  2
OBJECTS
  0
DICTIONARY
  5
C
330
0
100
AcDbDictionary
281
     1
  3
ACAD_GROUP
350
D
  3
ACAD_LAYOUT
350
1A
  3
ACAD_MLINESTYLE
350
17
  3
ACAD_PLOTSETTINGS
350
19
  3
ACAD_PLOTSTYLENAME
350
E
  3
ACAD_SCALELIST
350
47
  0
DICTIONARY
  5
D
102
{ACAD_REACTORS
330
C
102
}
330
C
100
AcDbDictionary
281
     1
  0
DICTIONARY
  5
1A
102
{ACAD_REACTORS
330
C
102
}
330
C
100
AcDbDictionary
281
     1
  3
Layout1
350
1E
  3
Layout2
350
26
  3
Model
350
22
  0
DICTIONARY
  5
17
102
{ACAD_REACTORS
330
C
102
}
330
C
100
AcDbDictionary
281
     1
  3
Standard
350
18
  0
DICTIONARY
  5
19
102
{ACAD_REACTORS
330
C
102
}
330
C
100
AcDbDictionary
281
     1
  0
ACDBDICTIONARYWDFLT
  5
E
102
{ACAD_REACTORS
330
C
102
}
330
C
100
AcDbDictionary
281
     1
  3
Normal
350
F
100
AcDbDictionaryWithDefault
340
F
  0
DICTIONARY
  5
47
102
{ACAD_REACTORS
330
C
102
}
330
C
100
AcDbDictionary
281
     1
  3
A0
350
48
  3
A1
350
49
  3
A2
350
4A
  3
A3
350
4B
  3
A4
350
4C
  3
A5
350
4D
  3
A6
350
4E
  3
A7
350
4F
  3
A8
350
50
  3
A9
350
51
  3
B0
350
52
  3
B1
350
53
  3
B2
350
54
  3
B3
350
55
  3
B4
350
56
  3
B5
350
57
  3
B6
350
58
  3
B7
350
59
  3
B8
350
5A
  3
B9
350
5B
  3
C0
350
5C
  3
C1
350
5D
  3
C2
350
5E
  3
C3
350
5F
  3
C4
350
60
  3
C5
350
61
  3
C6
350
62
  3
C7
350
63
  3
C8
350
64
  3
C9
350
65
  3
D0
350
66
  3
D1
350
67
  3
D2
350
68
  0
LAYOUT
  5
1E
102
{ACAD_REACTORS
330
1A
102
}
330
1A
100
AcDbPlotSettings
  1

  2
none_device
  4

  6

 40
0.0
 41
0.0
 42
0.0
 43
0.0
 44
0.0
 45
0.0
 46
0.0
 47
0.0
 48
0.0
 49
0.0
140
0.0
141
0.0
142
1.0
143
1.0
 70
   688
 72
     1
 73
     0
 74
     5
  7

 75
    16
147
1.0
148
0.0
149
0.0
100
AcDbLayout
  1
Layout1
 70
     1
 71
     1
 10
0.0
 20
0.0
 11
420.0
 21
297.0
 12
0.0
 22
0.0
 32
0.0
 14
1.0000000000E+20
 24
1.0000000000E+20
 34
1.0000000000E+20
 15
-1.0000000000E+20
 25
-1.0000000000E+20
 35
-1.0000000000E+20
146
0.0
 13
0.0
 23
0.0
 33
0.0
 16
1.0
 26
0.0
 36
0.0
 17
0.0
 27
1.0
 37
0.0
 76
     0
330
1B
  0
LAYOUT
  5
26
102
{ACAD_REACTORS
330
1A
102
}
330
1A
100
AcDbPlotSettings
  1

  2
none_device
  4

  6

 40
0.0
 41
0.0
 42
0.0
 43
0.0
 44
0.0
 45
0.0
 46
0.0
 47
0.0
 48
0.0
 49
0.0
140
0.0
141
0.0
142
1.0
143
1.0
 70
   688
 72
     1
 73
     0
 74
     5
  7

 75
    16
147
1.0
148
0.0
149
0.0
100
AcDbLayout
  1
Layout2
 70
     1
 71
     2
 10
0.0
 20
0.0
 11
0.0
 21
0.0
 12
0.0
 22
0.0
 32
0.0
 14
0.0
 24
0.0
 34
0.0
 15
0.0
 25
0.0
 35
0.0
146
0.0
 13
0.0
 23
0.0
 33
0.0
 16
1.0
 26
0.0
 36
0.0
 17
0.0
 27
1.0
 37
0.0
 76
     0
330
23
  0
LAYOUT
  5
22
102
{ACAD_REACTORS
330
1A
102
}
330
1A
100
AcDbPlotSettings
  1

  2
none_device
  4
ANSI_A_(11.00_x_8.50_Inches)
  6

 40
6.35
 41
19.05
 42
6.35000508
 43
19.05000254
 44
279.4
 45
215.9
 46
-4.95300254
 47
5.91819873
 48
0.0
 49
0.0
140
0.0
141
0.0
142
0.02178
143
1.0
 70
  1696
 72
     0
 73
     0
 74
     0
  7

 75
     0
147
0.0179189148
148
-1300.4909072572
149
0.0
100
AcDbLayout
  1
Model
 70
     1
 71
     0
 10
0.0
 20
0.0
 11
420.0
 21
297.0
 12
0.0
 22
0.0
 32
0.0
 14
0.0
 24
0.0
 34
0.0
 15
500.0
 25
300.0
 35
0.0
146
0.0
 13
0.0
 23
0.0
 33
0.0
 16
1.0
 26
0.0
 36
0.0
 17
0.0
 27
1.0
 37
0.0
 76
     0
330
1F
331
29
  0
MLINESTYLE
  5
18
102
{ACAD_REACTORS
330
17
102
}
330
17
100
AcDbMlineStyle
  2
Standard
 70
     0
  3

 62
   256
 51
90.0
 52
90.0
 71
     2
 49
0.5
 62
   256
  6
BYLAYER
 49
-0.5
 62
   256
  6
BYLAYER
  0
ACDBPLACEHOLDER
  5
F
102
{ACAD_REACTORS
330
E
102
}
330
E
  0
SCALE
  5
48
102
{ACAD_REACTORS
330
47
102
}
330
47
100
AcDbScale
 70
     0
300
1:1
140
1.0
141
1.0
290
     1
  0
SCALE
  5
49
102
{ACAD_REACTORS
330
47
102
}
330
47
100
AcDbScale
 70
     0
300
1:2
140
1.0
141
2.0
290
     0
  0
SCALE
  5
4A
102
{ACAD_REACTORS
330
47
102
}
330
47
100
AcDbScale
 70
     0
300
1:4
140
1.0
141
4.0
290
     0
  0
SCALE
  5
4B
102
{ACAD_REACTORS
330
47
102
}
330
47
100
AcDbScale
 70
     0
300
1:5
140
1.0
141
5.0
290
     0
  0
SCALE
  5
4C
102
{ACAD_REACTORS
330
47
102
}
330
47
100
AcDbScale
 70
     0
300
1:8
140
1.0
141
8.0
290
     0
  0
SCALE
  5
4D
102
{ACAD_REACTORS
330
47
102
}
330
47
100
AcDbScale
 70
     0
300
1:10
140
1.0
141
10.0
290
     0
  0
SCALE
  5
4E
102
{ACAD_REACTORS
330
47
102
}
330
47
100
AcDbScale
 70
     0
300
1:16
140
1.0
141
16.0
290
     0
  0
SCALE
  5
4F
102
{ACAD_REACTORS
330
47
102
}
330
47
100
AcDbScale
 70
     0
300
1:20
140
1.0
141
20.0
290
     0
  0
SCALE
  5
50
102
{ACAD_REACTORS
330
47
102
}
330
47
100
AcDbScale
 70
     0
300
1:30
140
1.0
141
30.0
290
     0
  0
SCALE
  5
51
102
{ACAD_REACTORS
330
47
102
}
330
47
100
AcDbScale
 70
     0
300
1:40
140
1.0
141
40.0
290
     0
  0
SCALE
  5
52
102
{ACAD_REACTORS
330
47
102
}
330
47
100
AcDbScale
 70
     0
300
1:50
140
1.0
141
50.0
290
     0
  0
SCALE
  5
53
102
{ACAD_REACTORS
330
47
102
}
330
47
100
AcDbScale
 70
     0
300
1:100
140
1.0
141
100.0
290
     0
  0
SCALE
  5
54
102
{ACAD_REACTORS
330
47
102
}
330
47
100
AcDbScale
 70
     0
300
2:1
140
2.0
141
1.0
290
     0
  0
SCALE
  5
55
102
{ACAD_REACTORS
330
47
102
}
330
47
100
AcDbScale
 70
     0
300
4:1
140
4.0
141
1.0
290
     0
  0
SCALE
  5
56
102
{ACAD_REACTORS
330
47
102
}
330
47
100
AcDbScale
 70
     0
300
8:1
140
8.0
141
1.0
290
     0
  0
SCALE
  5
57
102
{ACAD_REACTORS
330
47
102
}
330
47
100
AcDbScale
 70
     0
300
10:1
140
10.0
141
1.0
290
     0
  0
SCALE
  5
58
102
{ACAD_REACTORS
330
47
102
}
330
47
100
AcDbScale
 70
     0
300
100:1
140
100.0
141
1.0
290
     0
  0
SCALE
  5
59
102
{ACAD_REACTORS
330
47
102
}
330
47
100
AcDbScale
 70
     0
300
1/128" = 1'-0"
140
0.0078125
141
12.0
290
     0
  0
SCALE
  5
5A
102
{ACAD_REACTORS
330
47
102
}
330
47
100
AcDbScale
 70
     0
300
1/64" = 1'-0"
140
0.015625
141
12.0
290
     0
  0
SCALE
  5
5B
102
{ACAD_REACTORS
330
47
102
}
330
47
100
AcDbScale
 70
     0
300
1/32" = 1'-0"
140
0.03125
141
12.0
290
     0
  0
SCALE
  5
5C
102
{ACAD_REACTORS
330
47
102
}
330
47
100
AcDbScale
 70
     0
300
1/16" = 1'-0"
140
0.0625
141
12.0
290
     0
  0
SCALE
  5
5D
102
{ACAD_REACTORS
330
47
102
}
330
47
100
AcDbScale
 70
     0
300
3/32" = 1'-0"
140
0.09375
141
12.0
290
     0
  0
SCALE
  5
5E
102
{ACAD_REACTORS
330
47
102
}
330
47
100
AcDbScale
 70
     0
300
1/8" = 1'-0"
140
0.125
141
12.0
290
     0
  0
SCALE
  5
5F
102
{ACAD_REACTORS
330
47
102
}
330
47
100
AcDbScale
 70
     0
300
3/16" = 1'-0"
140
0.1875
141
12.0
290
     0
  0
SCALE
  5
60
102
{ACAD_REACTORS
330
47
102
}
330
47
100
AcDbScale
 70
     0
300
1/4" = 1'-0"
140
0.25
141
12.0
290
     0
  0
SCALE
  5
61
102
{ACAD_REACTORS
330
47
102
}
330
47
100
AcDbScale
 70
     0
300
3/8" = 1'-0"
140
0.375
141
12.0
290
     0
  0
SCALE
  5
62
102
{ACAD_REACTORS
330
47
102
}
330
47
100
AcDbScale
 70
     0
300
1/2" = 1'-0"
140
0.5
141
12.0
290
     0
  0
SCALE
  5
63
102
{ACAD_REACTORS
330
47
102
}
330
47
100
AcDbScale
 70
     0
300
3/4" = 1'-0"
140
0.75
141
12.0
290
     0
  0
SCALE
  5
64
102
{ACAD_REACTORS
330
47
102
}
330
47
100
AcDbScale
 70
     0
300
1" = 1'-0"
140
1.0
141
12.0
290
     0
  0
SCALE
  5
65
102
{ACAD_REACTORS
330
47
102
}
330
47
100
AcDbScale
 70
     0
300
1-1/2" = 1'-0"
140
1.5
141
12.0
290
     0
  0
SCALE
  5
66
102
{ACAD_REACTORS
330
47
102
}
330
47
100
AcDbScale
 70
     0
300
3" = 1'-0"
140
3.0
141
12.0
290
     0
  0
SCALE
  5
67
102
{ACAD_REACTORS
330
47
102
}
330
47
100
AcDbScale
 70
     0
300
6" = 1'-0"
140
6.0
141
12.0
290
     0
  0
SCALE
  5
68
102
{ACAD_REACTORS
330
47
102
}
330
47
100
AcDbScale
 70
     0
300
1'-0" = 1'-0"
140
12.0
141
12.0
290
     0
  0
ENDSEC
  0
EOF
